<svg width="40" height="41" viewBox="0 0 40 41" fill="none" xmlns="http://www.w3.org/2000/svg">
<path d="M28.8285 0.949219H10.7C4.79993 0.949219 0 5.74924 0 11.6494V29.7786C0 35.6785 4.79993 40.4785 10.7 40.4785H28.8288C34.7286 40.4785 39.5285 35.6785 39.5285 29.7786V11.6494C39.5285 5.74924 34.7286 0.949219 28.8285 0.949219V0.949219ZM37.2112 29.7786C37.2112 34.4007 33.4508 38.1611 28.8285 38.1611H10.7C6.07772 38.1611 2.31733 34.4007 2.31733 29.7786V11.6494C2.31733 7.02705 6.07772 3.26659 10.7 3.26659H28.8288C33.4508 3.26659 37.2112 7.02705 37.2112 11.6494V29.7786Z" fill="#001E64"/>
<path d="M19.7623 9.90527C13.8025 9.90527 8.95404 14.7537 8.95404 20.7134C8.95404 26.6731 13.8025 31.5215 19.7623 31.5215C25.7221 31.5215 30.5706 26.6731 30.5706 20.7134C30.5706 14.7537 25.7221 9.90527 19.7623 9.90527ZM19.7623 29.2042C15.0806 29.2042 11.2714 25.3953 11.2714 20.7134C11.2714 16.0317 15.0806 12.2226 19.7623 12.2226C24.4443 12.2226 28.2533 16.0317 28.2533 20.7134C28.2533 25.3953 24.4443 29.2042 19.7623 29.2042Z" fill="#001E64"/>
<path d="M30.8304 6.06689C29.0692 6.06689 27.6367 7.49958 27.6367 9.26035C27.6367 11.0214 29.0692 12.4541 30.8304 12.4541C32.5916 12.4541 34.0244 11.0214 34.0244 9.26035C34.0244 7.49927 32.5916 6.06689 30.8304 6.06689ZM30.8304 10.1367C30.3473 10.1367 29.954 9.74344 29.954 9.26035C29.954 8.77696 30.3473 8.38403 30.8304 8.38403C31.3139 8.38403 31.7071 8.77696 31.7071 9.26035C31.7071 9.74344 31.3139 10.1367 30.8304 10.1367Z" fill="#001E64"/>
</svg>
