<svg width="180" height="166" viewBox="0 0 180 166" fill="none" xmlns="http://www.w3.org/2000/svg">
<g opacity="0.15">
<path d="M95.4112 0.612961C92.0214 1.10706 79.4328 2.33527 73.7503 2.71645C70.5012 2.94232 62.948 2.98466 60.8522 2.80115C59.7832 2.70232 59.5441 2.63173 58.883 2.19409C57.8703 1.50235 57.2374 1.33295 56.0418 1.40353C54.6493 1.50235 53.6085 2.02469 52.441 3.19643C51.3017 4.35405 50.8798 5.2011 50.7813 6.47165C50.711 7.55869 50.922 10.2128 51.3158 12.8103C51.7378 15.6197 51.9065 17.8361 51.8081 18.9937C51.7378 19.6855 51.4564 20.8714 51.0345 22.1984C50.6547 23.356 50.0218 25.3889 49.6279 26.7159C48.348 30.9511 47.2649 33.3228 45.7177 35.2569C44.3674 36.9651 42.1873 38.5039 40.2744 39.111C38.8959 39.5486 37.827 39.6474 33.4526 39.7745C30.5129 39.8451 28.614 39.9721 27.7982 40.1133C25.9275 40.4521 23.227 41.398 21.1031 42.4568C16.8271 44.5885 14.0984 46.8332 10.9759 50.8284C10.3007 51.6895 8.86607 53.4965 7.78302 54.8518C4.46356 59.0023 3.92907 59.7082 3.43678 60.7387C2.56472 62.5034 2.48032 63.0116 2.43813 67.0915C2.41 70.9738 2.29747 72.0044 1.43948 76.0561C0.398627 80.9266 0.131382 82.6206 0.0329239 85.0912C-0.0374037 86.7288 -0.00927267 87.1946 0.257972 88.4087C0.412693 89.1852 0.60961 90.1169 0.665872 90.484C0.750265 91.0205 0.933117 91.3169 1.56606 92.0087C2.78976 93.3216 4.70267 96.8509 5.11057 98.5309C5.16684 98.7426 5.46221 99.2085 5.75759 99.5473C6.54526 100.437 6.8125 101.637 7.07975 105.321C7.29073 108.328 7.48765 109.514 7.99401 110.898C8.92233 113.396 11.0181 116.291 13.0857 117.914C14.1125 118.719 15.8566 119.679 16.3067 119.679C16.4614 119.679 16.6162 119.876 16.7287 120.201C16.9537 120.893 17.3194 121.486 18.6697 123.264C20.3154 125.439 20.5545 126.229 20.7936 130.478C20.878 131.947 20.9765 133.288 21.0327 133.429C21.2015 134.008 25.0977 138.737 27.6435 141.462C29.1767 143.099 29.4298 143.241 31.2302 143.353C32.4539 143.438 32.468 143.438 33.2697 144.13C33.7198 144.511 34.7466 145.245 35.5343 145.768C41.2308 149.466 42.3139 150.313 42.3139 151.062C42.3139 151.626 42.6092 152.262 43.2562 153.08C44.0017 154.012 44.2971 154.591 44.4096 155.353L44.494 155.988L45.4786 156.299C46.4913 156.638 47.6025 157.118 51.5268 158.967C54.9025 160.548 56.6185 161.042 58.7705 161.042C60.2474 161.042 60.7537 160.901 61.8227 160.21C62.962 159.475 63.2011 159.419 63.8482 159.715L64.3967 159.955L64.7906 159.588C65.1422 159.25 65.2969 159.207 66.0986 159.207C68.0116 159.207 69.2071 159.843 70.7403 161.692C72.6954 164.049 73.2299 164.402 75.4381 164.882C77.0557 165.221 80.6283 165.348 84.7214 165.207L87.8158 165.108L89.2224 163.725C90.9383 162.045 91.5713 161.762 93.7374 161.65C96.1004 161.522 98.801 162.073 100.967 163.132C101.544 163.414 102.078 163.626 102.149 163.598C102.233 163.584 104.132 163.513 106.368 163.442C110.743 163.301 111.615 163.202 113.331 162.666C114.737 162.214 115.764 161.522 117.424 159.913C118.985 158.388 119.801 157.824 121.151 157.344C122.994 156.666 124.245 156.454 126.285 156.468C127.987 156.468 128.296 156.511 129.281 156.85L130.392 157.231L131.953 156.327C134.119 155.071 136.426 153.984 138.592 153.193C140.885 152.374 141.616 151.993 142.418 151.259C143.248 150.497 143.417 150.13 143.642 148.591C143.754 147.871 143.895 147.151 143.951 146.996C144.204 146.276 145.147 145.273 146.652 144.073C147.552 143.353 149.015 142.083 149.887 141.236C151.758 139.429 152.63 138.935 153.685 139.076C155.766 139.372 155.372 139.514 157.651 137.678C162.518 133.74 164.107 131.805 164.965 128.714C165.275 127.598 165.359 125.523 165.176 123.999C165.092 123.335 165.12 123.18 165.443 122.7C165.64 122.389 166.259 121.161 166.808 119.961C167.849 117.688 168.721 116.22 169.438 115.542C169.663 115.331 170.507 114.822 171.309 114.413C172.926 113.608 172.842 113.693 174.347 111.067C176.682 106.973 177.765 103.599 177.765 100.394C177.765 98.6862 177.568 97.8956 176.668 96.1168L175.866 94.5074V93.0816C175.88 91.2463 176.105 90.5263 177.905 86.7852C179.439 83.5947 179.846 82.3806 179.973 80.5595C180.086 78.8231 179.846 77.5807 179.242 76.8325C178.426 75.8443 177.948 74.5879 177.357 71.962C176.752 69.1809 176.611 68.7856 175.838 67.628C175.528 67.1763 174.361 64.9316 173.236 62.6446C170.479 57.0682 167.891 52.7766 164.571 48.2872C163.727 47.1437 163.418 46.819 163.08 46.7485C162.447 46.6214 161.308 45.9579 159.93 44.8991C158.382 43.7132 157.637 43.3744 155.963 43.0921C154.107 42.7815 153.516 42.5274 152.545 41.638C152.025 41.158 151.279 40.6639 150.562 40.3251C149.479 39.8168 148.762 39.591 144.655 38.4333L142.854 37.9251L141.982 37.0498C140.716 35.7652 139.703 35.2569 135.653 33.8311C132.811 32.8429 131.967 32.4617 130.842 31.6994L129.97 31.1205L129.886 30.2312C129.759 28.9888 129.225 27.2242 128.296 24.9654C126.215 19.8972 125.807 18.6549 125.582 16.6503C125.427 15.3374 125.624 13.6997 126.018 12.8527C126.299 12.2739 126.426 12.1609 128.128 11.1163C128.662 10.7916 128.887 10.5233 129.253 9.761C129.675 8.89984 129.731 8.64572 129.773 7.37517L129.829 5.9352L128.479 5.55403C127.748 5.34227 125.722 4.69287 124.006 4.11406C118.014 2.08116 116.003 1.51646 113.063 1.00824C111.39 0.711777 107.929 0.655304 104.343 0.867065C102.191 0.994125 102.149 0.980011 101.08 0.612961C99.7152 0.147079 98.5197 0.147079 95.4112 0.612961ZM113.19 2.78703C115.272 3.21054 116.847 3.74701 121.151 5.46933C123.247 6.30225 125.469 7.16341 126.116 7.37517L127.284 7.75633L126.608 8.47632C124.4 10.848 123.247 13.6856 123.359 16.4385C123.402 17.6244 123.444 17.7796 124.358 19.7702C125.427 22.1137 125.483 22.3113 126.369 26.363C127.256 30.4711 127.776 31.9676 128.789 33.3652C129.14 33.8452 129.351 33.9722 130.097 34.184C131.475 34.5793 134.373 35.4969 135.709 35.991C137.087 36.4851 139.507 37.5157 139.507 37.6145C139.507 37.6428 139.408 37.8686 139.282 38.0945C139.169 38.3345 139.085 38.5463 139.113 38.5745C139.141 38.6027 139.76 38.7721 140.519 38.9698C141.265 39.1815 142.756 39.6615 143.825 40.0709C147.088 41.285 149.648 42.1462 150.576 42.3297C151.322 42.485 151.462 42.5556 151.462 42.7956C151.462 42.965 151.659 43.2897 151.884 43.5438C152.194 43.8967 152.475 44.0238 153.136 44.1509C155.133 44.5179 156.821 45.3508 160.014 47.5814C161.196 48.4002 162.293 49.1202 162.433 49.1625C162.588 49.2049 163.024 49.826 163.432 50.546C163.84 51.266 165.697 54.1318 167.567 56.9412C171.379 62.6305 172.715 65.0869 173.587 68.0092C174.094 69.7033 174.53 71.9197 174.53 72.8232V73.3455L172.954 72.6397C163.474 68.4186 156.568 63.8869 141.546 52.0425C139.071 50.0943 135.653 47.4402 133.951 46.1555C130.955 43.8967 130.547 43.4873 130.913 43.1203C131.236 42.7956 131.011 42.6262 129.534 42.0474C128.704 41.7227 127.734 41.2568 127.396 41.0168L126.777 40.565L127.382 40.4239C129.661 39.9298 134.401 42.3721 141.251 47.5673C144.233 49.826 146.652 51.5201 147.918 52.2119C148.185 52.3671 148.354 52.593 148.41 52.8895C148.466 53.1718 148.748 53.553 149.17 53.9342C149.535 54.2589 150.182 54.88 150.618 55.3177C151.04 55.7412 151.715 56.2777 152.095 56.5035C153.375 57.2376 155.147 58.4235 157.862 60.3011C161.899 63.0963 163.291 63.9716 165.542 65.101C167.356 66.0186 170.676 67.2751 170.83 67.1057C170.859 67.0774 170.676 66.8092 170.423 66.5127C169.93 65.948 168.636 65.2563 167.778 65.1151C167.37 65.0445 167.103 64.861 166.583 64.254C165.739 63.2657 164.698 62.574 163.643 62.3058C163.109 62.1646 162.56 61.8822 162.096 61.5152C160.647 60.3576 156.948 57.5623 154.416 55.7271C148.044 51.0684 144.289 47.9767 141.87 45.3367C141.56 44.9979 141.223 44.7156 141.124 44.7156C140.772 44.7156 138.156 43.3038 136.412 42.1744C134.077 40.6498 132.108 39.7039 130.561 39.3227C129.422 39.0404 129.253 38.9557 128.676 38.3627C127.748 37.3886 126.777 36.7251 124.063 35.2005C120.743 33.3228 119.351 32.1511 118.577 30.57C118.436 30.2453 117.916 29.7512 117.199 29.2147C114.217 26.9983 112.388 24.6407 107.508 16.6926C104.877 12.4009 102.556 9.42218 101.867 9.42218C101.276 9.42218 100.531 9.0269 99.7715 8.30692C98.9697 7.54457 98.3368 7.34692 97.2819 7.51634C96.1004 7.69986 95.3268 8.0528 93.7655 9.1116C91.8245 10.4104 91.079 10.721 89.8412 10.721C88.7019 10.721 88.2237 10.5233 86.789 9.45041C85.4528 8.4622 84.3838 7.91162 83.3711 7.7281C82.274 7.51634 81.641 7.68575 80.4736 8.49043C79.8969 8.88573 79.1092 9.39395 78.7295 9.63394C78.1528 9.98688 77.8574 10.3398 77.0275 11.681C76.4087 12.6551 75.6351 13.6715 75.0865 14.2221C74.4958 14.8009 74.0597 15.3797 73.905 15.775C72.8782 18.4149 71.5561 19.9537 67.4208 23.2572C64.8749 25.2901 63.7638 26.2924 62.948 27.2806C62.5119 27.803 61.9071 28.3253 61.3445 28.65C59.4738 29.737 57.364 31.4311 54.5368 34.0711C49.6983 38.6169 48.9387 39.1815 44.916 41.2568C42.131 42.6827 40.2744 43.8403 39.557 44.5885L39.1491 45.0261L39.7117 44.9273C40.851 44.7297 41.9904 44.3909 43.1578 43.9109C45.5208 42.9368 47.2087 41.8638 51.8081 38.3627C53.51 37.0639 55.3807 35.6946 55.9574 35.2993C56.5341 34.904 57.9688 33.704 59.1222 32.6452C63.9185 28.2406 67.041 25.8971 70.262 24.2595C71.1763 23.8078 71.4154 23.6101 71.6967 23.1019C72.7376 21.196 74.3692 18.8526 75.8179 17.1444C76.3243 16.5373 76.9713 15.5068 77.562 14.3491C79.1796 11.1727 80.558 10.0292 83.0335 9.87393L84.201 9.80334L85.059 10.5233C86.7187 11.9209 87.9143 12.3868 89.785 12.4009C91.5291 12.4151 91.9792 12.2457 94.075 10.8339C95.2565 10.0434 95.9738 9.70453 96.4942 9.70453C96.8599 9.70453 96.7333 10.0998 96.0723 11.088C95.805 11.4833 95.6222 11.8645 95.6644 11.9068C95.8472 12.0904 96.6067 11.6386 96.9725 11.1304C97.1834 10.848 97.3803 10.5939 97.3944 10.5657C97.4788 10.4669 97.8726 10.8622 97.8726 11.0598C97.8726 11.1586 97.6054 11.5398 97.2819 11.9209L96.7052 12.5986L97.4647 12.7115C97.8867 12.768 98.6322 12.768 99.1245 12.7256C100.109 12.6268 100.053 12.5562 99.7574 13.5162C99.6449 13.855 99.7293 13.855 100.601 13.6009C101.347 13.375 101.614 13.4174 101.825 13.8268C102.022 14.1938 101.755 14.5044 101.248 14.5044C100.419 14.5044 100.686 15.3797 101.67 15.8738C102.331 16.2126 103.203 16.2973 103.654 16.0573C104.005 15.8597 104.005 16.0856 103.64 16.4103C103.33 16.6926 103.274 17.1161 103.513 17.2714C103.597 17.3138 103.907 17.2432 104.202 17.1161C105.271 16.6361 105.482 17.2432 104.54 18.1185C104.033 18.5984 103.921 19.0784 104.287 19.2196C104.526 19.3184 105.187 19.0079 105.454 18.6832C105.679 18.4149 106.171 18.3867 106.171 18.6267C106.171 18.7255 105.932 18.9373 105.637 19.0926C105.229 19.3184 105.13 19.4596 105.159 19.7278C105.201 20.1655 105.215 20.1796 105.96 20.2502C106.678 20.3349 106.79 20.589 106.242 20.9419C105.538 21.3937 105.96 21.8878 106.72 21.5066C107.268 21.2102 107.986 21.2102 108.098 21.5066C108.14 21.6337 108.014 21.9019 107.733 22.1843C107.015 22.9325 107.184 23.1866 108.408 23.1866C109.364 23.1866 109.603 23.4548 109.153 24.0336C108.844 24.4289 108.745 25.0077 108.956 25.1489C109.027 25.1913 109.378 25.1207 109.758 25.0077C110.546 24.7819 111.024 24.8524 110.883 25.2054C110.489 26.2359 110.827 26.7865 111.854 26.7865C112.43 26.7865 112.487 26.8148 112.571 27.2242C112.627 27.4642 113.176 28.41 113.795 29.3276C114.667 30.6264 114.934 31.1347 114.99 31.6288C115.061 32.1652 115.131 32.2782 115.567 32.5182C115.834 32.6593 116.228 32.9417 116.453 33.1534C116.805 33.4923 116.833 33.577 116.763 34.3534C116.636 35.7087 116.861 36.2028 118.211 37.6851C119.041 38.5745 119.745 39.5486 120.42 40.6921C120.954 41.6238 121.84 43.1344 122.375 44.0379C124.035 46.8896 125.385 48.4002 130.505 53.1154C132.98 55.4024 135.132 57.5482 136.482 59.0447C138.845 61.6987 140.111 62.8422 141.419 63.5199C142.249 63.9575 142.348 64.0563 142.784 64.9316L143.234 65.8916H143.979C144.725 65.8916 144.725 65.8916 144.978 66.4986C145.119 66.8233 145.287 67.3033 145.344 67.5574C145.442 68.0092 145.442 68.0092 146.314 68.0092C147.636 68.0092 147.833 68.348 147.032 69.1809C146.764 69.4633 146.539 69.7456 146.539 69.8303C146.539 70.0562 147.003 70.1268 147.524 69.9856C148.326 69.7597 149.071 69.8021 149.071 70.0844C149.071 70.2115 149.141 70.5362 149.24 70.7903C149.395 71.2279 149.451 71.2562 150.112 71.2562C150.759 71.2562 150.843 71.2985 151.448 71.962C151.94 72.4985 152.236 72.6961 152.63 72.7667C153.052 72.8232 153.15 72.8938 153.08 73.0773C152.798 73.7549 152.7 74.1079 152.784 74.1785C152.939 74.3337 153.685 74.2349 154.149 73.9949C154.613 73.7691 154.613 73.7691 154.936 74.1643C155.372 74.7149 155.344 74.9267 154.768 75.3925C154.5 75.6043 154.275 75.8443 154.275 75.929C154.275 76.0278 154.782 76.0561 155.682 76.0278C156.456 75.9996 157.088 75.9996 157.088 76.0278C157.088 76.0561 156.92 76.2961 156.709 76.5643C156.399 76.9878 156.371 77.0866 156.54 77.1996C156.948 77.4678 157.426 77.496 158.157 77.2984C159.297 76.9737 159.564 77.4254 158.706 78.2301C158.439 78.4984 158.214 78.8089 158.214 78.936C158.214 79.1336 158.312 79.1619 158.889 79.0913C159.494 79.0066 159.606 79.0489 160.253 79.5007C160.788 79.896 161.097 80.0089 161.547 80.0089H162.124L162.068 80.5313C161.969 81.336 162.11 81.4489 162.898 81.1807C163.46 80.9971 163.657 80.983 164.192 81.1383C164.937 81.3501 165.823 82.2395 166.076 83.0159L166.259 83.5383H167.159C168.13 83.5383 168.214 83.623 167.891 84.3147C167.806 84.5124 167.778 84.71 167.82 84.7665C167.975 84.9218 168.721 84.8371 169.143 84.6253C169.354 84.5124 169.705 84.3853 169.93 84.3288C170.31 84.2441 170.31 84.2441 170.31 84.9076V85.5853H171.759C173.039 85.5853 173.278 85.6276 173.897 85.9523L174.6 86.3194L174.558 87.2935C174.544 87.8299 174.361 89.044 174.178 90.004C173.7 92.3334 173.63 93.1945 173.812 94.1827C173.897 94.6486 173.939 95.058 173.897 95.0863C173.77 95.2133 172.026 94.3804 170.985 93.7028C170.423 93.3216 169.143 92.3334 168.13 91.5146C165.95 89.6934 164.965 89.0158 163.727 88.437C163.01 88.1123 162.419 87.6605 161.238 86.517C160.394 85.6841 158.143 83.7218 156.245 82.1265C152.489 78.9784 149.577 76.1549 148.368 74.5032C147.946 73.9102 146.736 72.6397 145.625 71.6232C137.34 63.9575 130.884 57.3365 126.229 51.7036C121.024 45.4214 116.481 38.5039 113.246 31.9676C112.67 30.81 112.177 29.8923 112.149 29.9206C112.051 30.0194 112.501 32.024 112.866 33.1393C113.373 34.6499 114.428 36.824 116.552 40.6356C120.096 47.0449 122.009 49.8401 125.202 53.2848C126.004 54.1601 126.819 55.1765 127.03 55.5718C127.537 56.4753 142.052 71.1291 144.725 73.4161C145.78 74.3196 146.792 75.2937 146.975 75.5902C148.494 78.1172 151.054 80.6019 156.245 84.5971C158.706 86.4888 160.844 88.2958 161.927 89.4111C162.335 89.8346 162.771 90.1734 162.912 90.1734C163.038 90.1734 163.573 90.3993 164.107 90.6675C164.628 90.9357 165.134 91.1616 165.232 91.1616C165.331 91.1616 165.753 91.5004 166.161 91.924C166.569 92.3334 167.441 92.9969 168.088 93.3922C169.565 94.2816 170.521 95.1286 170.887 95.8345C171.084 96.2298 171.252 96.385 171.492 96.385C172.012 96.385 173.489 97.2038 173.981 97.7685C175.852 99.9003 175.669 104.263 173.517 108.399C172.757 109.881 171.703 111.208 171.309 111.208C170.957 111.208 170.634 110.799 170.521 110.22C170.451 109.825 170.254 109.599 169.565 109.091C166.54 106.874 162.251 102.766 156.034 96.1027C154.177 94.1263 151.476 91.3169 150.028 89.8769C148.565 88.437 147.383 87.1946 147.383 87.1241C147.383 86.8276 146.047 84.95 145.006 83.8206C143.375 82.0277 142.46 80.8983 140.899 78.8089C139.521 76.9596 138.142 75.3361 135.484 72.4561C132.432 69.1244 130.884 67.021 129.689 64.5222C129.098 63.2799 128.859 62.9552 128.001 62.1505C126.637 60.8799 125.427 59.327 122.923 55.6C121.742 53.8495 120.406 51.9436 119.941 51.3648C119.323 50.5742 118.83 49.699 118.113 48.1037C117.578 46.9037 115.651 42.9226 113.837 39.2663C111.193 33.9581 110.532 32.5182 110.532 32.0664C110.532 31.4311 110.25 30.9511 109.828 30.8382C109.575 30.7676 109.547 30.8382 109.547 31.4594C109.547 32.1935 109.955 33.6052 110.349 34.2546C110.475 34.4522 110.771 34.8193 110.982 35.0593C111.305 35.4122 111.488 35.8922 111.868 37.3886C113.288 43.0497 114.906 46.3673 120.828 55.7412C122.178 57.8729 123.669 60.3011 124.161 61.1623C125.103 62.8422 125.554 63.3504 126.088 63.3504C126.383 63.3504 126.426 63.4069 126.426 63.8587C126.426 64.254 126.524 64.4516 126.876 64.7339C128.367 66.0045 128.592 66.2727 129.281 67.6986C129.998 69.1668 130.73 70.0703 131.306 70.2115C131.56 70.2821 131.602 70.3668 131.531 70.7056C131.363 71.5667 131.813 72.1032 132.685 72.1032C132.994 72.1032 133.036 72.1738 133.05 72.6679C133.065 72.9785 133.079 73.3032 133.093 73.3879C133.093 73.4585 133.515 73.8679 134.021 74.2632C135.16 75.1949 135.892 76.1549 136.201 77.129L136.44 77.8913H137.101H137.777L137.762 78.4842C137.748 79.0631 137.777 79.0913 138.649 79.6842C139.76 80.4042 139.872 80.5736 139.577 81.1242C139.155 81.9712 139.338 82.2677 140.294 82.2677C140.744 82.2677 140.801 82.3242 141.054 82.8889C141.349 83.5806 141.757 83.8771 142.263 83.7783C142.685 83.7077 142.685 83.75 142.249 84.2724C142.052 84.4982 141.926 84.7382 141.968 84.8088C141.996 84.8653 142.376 85.0912 142.812 85.2888C143.642 85.6982 143.909 86.1641 143.6 86.6582C143.515 86.7994 143.445 86.9405 143.445 86.9547C143.445 86.9829 143.923 86.9688 144.514 86.9547C145.513 86.9123 145.583 86.9264 145.484 87.1664C145.414 87.3076 145.358 87.6746 145.358 87.9852C145.344 88.5499 145.344 88.5499 146.455 89.1428C147.876 89.9193 148.185 90.2016 148.298 90.9357C148.424 91.6416 148.551 91.811 149.226 92.1498C149.577 92.3334 149.887 92.6722 150.182 93.2086C150.548 93.858 150.745 94.0416 151.293 94.2816C152.362 94.7192 152.377 94.7333 152.334 95.3827C152.292 95.9051 152.334 95.9756 152.742 96.2298C152.995 96.385 153.389 96.5545 153.6 96.5968C154.008 96.6956 154.078 96.7944 153.867 97.0344C153.685 97.2321 153.572 97.8532 153.685 98.0368C153.741 98.1356 154.191 98.2203 154.697 98.2485C155.752 98.2909 155.893 98.5026 155.387 99.1944C154.88 99.8861 155.091 100.112 156.16 100.027C157.609 99.9003 157.862 100.267 157.004 101.213C156.357 101.947 156.484 102.074 157.961 102.173C158.636 102.216 159.128 102.314 159.156 102.413C159.184 102.498 159.015 102.794 158.776 103.077C157.946 104.008 158.411 104.46 159.831 104.121C161.238 103.768 161.997 104.192 161.308 104.926C161.139 105.11 161.027 105.364 161.055 105.519C161.097 105.731 161.238 105.773 162.082 105.773C163.038 105.773 163.066 105.787 163.109 106.154C163.137 106.366 163.052 106.719 162.94 106.959C162.813 107.185 162.715 107.51 162.715 107.679C162.715 108.088 163.432 108.06 164.093 107.608C164.698 107.185 164.853 107.171 165.134 107.495C165.359 107.778 165.331 107.961 164.839 108.992C164.585 109.528 164.557 109.712 164.684 109.881C164.979 110.22 165.246 110.107 165.893 109.415C166.372 108.879 166.54 108.78 166.681 108.921C166.766 109.006 166.962 109.091 167.103 109.091C167.427 109.091 167.413 109.218 167.075 109.655C166.709 110.121 166.723 110.46 167.117 110.658C167.286 110.757 167.652 111.025 167.933 111.265C168.2 111.505 168.552 111.773 168.707 111.858C168.96 111.999 168.946 112.041 168.566 113.015C168.045 114.3 167.103 115.782 165.95 117.123C165.12 118.098 165.021 118.281 164.726 119.425C164.557 120.116 164.248 120.935 164.023 121.26C163.657 121.81 162.841 122.502 162.56 122.502C162.49 122.502 161.533 121.274 160.422 119.777C158.143 116.714 157.44 115.881 156.118 114.681C155.344 113.989 155.021 113.538 154.233 112.069C152.883 109.585 151.856 108.074 150.618 106.761C149.901 106.013 149.254 105.11 148.663 104.079C147.468 102.004 145.864 99.6603 142.924 95.7356L140.491 92.4745V91.7122C140.477 90.964 140.463 90.9216 139.071 89.1852C137.411 87.0958 136.553 85.8253 133.951 81.5618C131.728 77.9337 129.056 73.8396 127.495 71.6797C126.608 70.4515 126.426 70.0985 126.426 69.6609C126.426 68.955 126.383 68.8845 122.262 61.9952C116.341 52.0848 113.528 46.9602 113.682 46.3673C113.823 45.7885 113.485 44.2497 112.993 43.2332C112.74 42.6827 112.093 41.638 111.572 40.9039C111.038 40.1698 110.349 39.0404 110.011 38.391C109.491 37.4028 109.406 37.0922 109.406 36.3863C109.406 35.6381 109.308 35.3557 108.562 33.8875C107.817 32.4052 105.834 29.4688 105.581 29.4688C105.426 29.4688 105.299 30.3017 105.398 30.7676C105.454 31.0076 105.693 31.6288 105.918 32.137C106.143 32.6452 106.875 34.4381 107.536 36.104C108.956 39.718 109.378 40.565 110.686 42.5556C111.952 44.4756 112.219 45.0967 112.219 46.0849C112.219 47.7508 114.259 51.8166 119.534 60.5976C122.923 66.2727 124.442 68.9692 124.864 70.1409C125.174 70.9597 125.399 71.355 127.199 74.2208C127.804 75.1949 128.592 76.5219 128.929 77.1854C129.59 78.4419 138.044 91.5004 143.009 98.9262C150.098 109.542 155.668 117.067 161.097 123.392L162.883 125.481L162.799 126.215C162.419 129.095 161.083 131.481 158.622 133.655C156.779 135.307 155.429 136.337 155.161 136.337C154.782 136.337 154.346 135.815 154.036 134.996C153.882 134.601 153.052 133.344 152.18 132.187C149.381 128.446 147.06 124.846 142.953 117.914C137.523 108.724 136.454 106.959 134.921 104.531C133.529 102.357 133.318 101.947 133.318 101.425C133.318 100.366 132.924 99.0532 132.418 98.4462C130.744 96.3709 129.337 93.8863 125.666 86.4323C124.091 83.2418 122.347 79.896 121.798 78.9925C121.123 77.8631 120.659 76.889 120.377 75.9855C119.801 74.2208 119.21 72.795 117.072 68.1503C114.653 62.8987 113.893 61.0917 112.248 56.6306C111.474 54.5412 110.208 51.2378 109.434 49.3037C106.382 41.6238 106.171 41.0027 105.679 37.8686C105.426 36.231 104.835 34.8616 104.188 34.3958L103.766 34.0993L103.836 34.5652C103.893 34.8334 104.047 35.864 104.216 36.8804C104.694 39.9721 105.538 43.6567 106.439 46.5508C107.184 48.9508 110.588 58.4094 111.966 61.8681C113.049 64.621 114.793 68.1645 115.862 69.8021L116.706 71.115L116.467 71.7503C116.2 72.4844 116.298 72.7526 116.945 73.0914C117.171 73.2044 117.382 73.3173 117.41 73.3314C117.424 73.3455 117.283 73.5855 117.072 73.8538L116.692 74.362L117.058 74.5032C117.48 74.6584 117.705 75.1384 117.705 75.8584C117.705 76.3949 118.113 76.9031 118.549 76.9031C118.704 76.9031 118.83 76.9878 118.83 77.0866C118.83 77.1996 118.704 77.3972 118.549 77.5384C118.394 77.6796 118.268 77.9478 118.268 78.1454C118.268 78.4842 118.296 78.4842 118.901 78.4137C119.505 78.329 119.534 78.329 119.759 78.8372L120.012 79.3454L119.477 79.7689C118.985 80.1642 118.971 80.1924 119.196 80.4466C119.365 80.6442 119.632 80.7148 120.096 80.7148C120.56 80.7148 120.87 80.7995 121.137 81.0113C121.657 81.4207 121.573 81.8442 120.884 82.1971C120.195 82.5642 119.97 82.8889 120.181 83.2136C120.349 83.4677 120.659 83.4959 121.657 83.3124C122.108 83.2418 122.178 83.27 122.248 83.5524C122.375 84.0182 122.178 84.2582 121.503 84.5124C120.785 84.7806 120.701 84.9359 121.039 85.3453C121.292 85.6417 121.306 85.6417 122.037 85.43C122.445 85.3029 122.825 85.2465 122.867 85.2888C122.909 85.3312 122.839 85.5288 122.712 85.7123C122.431 86.15 122.417 86.7005 122.698 86.9264C122.811 87.0252 123.162 87.0958 123.472 87.0958C123.978 87.0817 124.035 87.1241 124.035 87.4346C124.035 87.7593 123.598 88.3382 123.359 88.3382C123.148 88.3382 122.614 88.917 122.698 89.044C122.74 89.1146 123.317 89.3405 123.964 89.5381C125.005 89.8628 125.174 89.9617 125.258 90.2722C125.329 90.5828 125.258 90.724 124.907 91.0205C124.386 91.444 124.358 91.5993 124.71 91.8957C125.103 92.2487 125.525 92.3192 125.779 92.0793C126.004 91.8393 126.285 91.8957 126.285 92.1922C126.285 92.2769 126.116 92.5169 125.919 92.7287C125.441 93.2369 125.554 93.5616 126.215 93.5757C127.424 93.618 127.579 93.9569 126.763 94.8604C126.369 95.3121 126.299 95.4533 126.44 95.6227C126.651 95.8768 127.087 95.8768 127.832 95.6086C128.156 95.4957 128.451 95.3968 128.465 95.3968C128.493 95.3968 128.535 95.538 128.578 95.6933C128.634 95.9192 128.55 96.1168 128.24 96.3992C127.832 96.7803 127.692 97.4156 127.973 97.585C128.043 97.6274 128.296 97.5709 128.521 97.4438C129.14 97.1333 129.422 97.1756 129.703 97.6697L129.956 98.1215L129.379 98.6438C128.986 99.0109 128.845 99.2367 128.901 99.4062C129.014 99.7026 129.52 99.9144 130.069 99.9144C130.533 99.9144 130.856 100.239 130.73 100.55C130.687 100.677 130.42 100.874 130.139 100.987C129.267 101.354 129.801 102.032 130.983 102.032H131.517L131.419 102.964C131.306 104.051 131.377 104.15 132.291 104.15C132.882 104.15 132.882 104.164 132.811 104.573C132.685 105.208 132.84 105.604 133.529 106.422C133.88 106.832 134.162 107.284 134.162 107.439C134.162 107.58 133.965 107.905 133.726 108.145C133.332 108.54 133.304 108.597 133.529 108.752C133.712 108.893 133.88 108.893 134.345 108.724C135.006 108.498 135.371 108.568 135.498 108.949C135.61 109.317 135.498 109.486 134.921 109.726C134.612 109.853 134.443 110.022 134.443 110.192C134.443 110.517 134.64 110.615 135.695 110.841C136.117 110.926 136.482 111.067 136.511 111.152C136.539 111.222 136.342 111.406 136.061 111.533C135.695 111.716 135.568 111.858 135.568 112.126C135.568 112.521 135.639 112.535 136.848 112.493C137.481 112.465 137.65 112.493 137.734 112.705C137.875 113.072 137.72 113.411 137.312 113.594C137.017 113.721 136.961 113.834 137.003 114.215L137.045 114.667L137.931 114.639C138.761 114.596 138.803 114.611 138.803 114.921C138.803 115.105 138.649 115.401 138.452 115.585C138.255 115.768 138.1 115.994 138.1 116.093C138.1 116.305 138.944 116.573 139.633 116.573C140.238 116.573 140.632 116.912 140.632 117.434C140.632 117.759 140.533 117.886 140.154 118.041C139.9 118.154 139.633 118.309 139.577 118.408C139.408 118.69 139.872 119.001 140.66 119.128C141.954 119.34 142.137 120.102 141.026 120.625C140.308 120.963 140.154 121.316 140.576 121.669C140.758 121.825 140.955 121.796 141.771 121.514C142.671 121.203 142.756 121.189 142.967 121.401C143.276 121.712 143.135 122.022 142.573 122.262C141.996 122.502 141.729 122.827 141.841 123.123C141.94 123.377 142.123 123.406 143.628 123.363L144.711 123.321V123.759C144.711 124.112 144.542 124.38 144.008 124.959C143.22 125.791 143.009 126.413 143.375 126.78C143.642 127.048 143.909 126.963 144.626 126.356C145.077 125.975 145.513 125.975 145.752 126.342C145.963 126.681 145.738 127.02 145.133 127.316C144.556 127.598 144.303 127.937 144.387 128.304C144.5 128.714 144.992 128.77 145.695 128.446C146.455 128.093 146.863 128.078 147.102 128.361C147.369 128.686 147.158 129.222 146.61 129.561C146.061 129.9 145.78 130.323 145.892 130.634C145.991 130.888 146.919 130.888 147.383 130.62C147.777 130.394 148.621 130.351 148.916 130.535C149.254 130.747 148.973 131.1 148.171 131.453C147.369 131.805 147.088 132.229 147.383 132.596C147.608 132.864 148.03 132.864 148.79 132.596C149.113 132.483 149.479 132.384 149.577 132.384C149.929 132.384 149.774 132.794 149.282 133.175C148.888 133.471 148.79 133.641 148.79 134.036C148.79 134.615 149.043 134.742 149.62 134.445C149.845 134.318 150.239 134.22 150.478 134.22C151.082 134.22 151.054 134.728 150.407 135.349C149.915 135.829 149.76 136.323 150.098 136.351C150.323 136.379 150.309 136.379 151.012 136.125C152.25 135.688 152.053 136.055 150.14 137.819C149.141 138.751 147.102 140.699 145.625 142.168C142.657 145.104 142.854 145.005 141.898 144.059C141.265 143.438 140.899 142.718 140.125 140.643C139.76 139.626 138.522 136.958 137.383 134.714C134.879 129.758 134.302 128.403 133.247 125.114C132.347 122.248 131.869 121.02 129.07 114.314C126.594 108.357 125.047 104.799 123.767 102.117C123.219 100.959 122.572 99.3779 122.333 98.5873C121.348 95.3545 120.462 92.9404 118.127 87.0676C117.185 84.6959 115.919 81.4207 115.3 79.783C114.695 78.1454 113.935 76.1408 113.612 75.3361C112.641 72.8938 112.093 71.1573 111.572 68.7856C110.883 65.6092 110.7 64.9881 108.97 59.8211C108.126 57.2941 107.156 54.1318 106.818 52.7907C106.34 50.9413 105.96 49.8543 105.243 48.2731C104.399 46.4096 104.202 45.7744 103.274 42.0615C102.134 37.4734 101.516 35.4546 100.7 33.7887C100.123 32.5887 100.095 32.5887 99.9121 33.8593C99.7434 35.1722 100.193 36.951 101.389 39.718C102.5 42.2591 102.796 43.2191 102.95 44.8567C103.232 47.9343 103.358 48.6543 104.047 50.8566C104.427 52.0989 105.257 54.8659 105.89 56.9976C106.523 59.1294 107.395 61.8964 107.817 63.1387C110.968 72.3432 112.135 76.0561 113.26 80.4042C113.767 82.3806 114.076 83.2136 115.131 85.5147C120.265 96.625 122.262 101.552 125.722 111.561C127.734 117.378 129.829 122.234 130.73 123.123C131.18 123.589 131.349 123.914 131.545 124.69C132.333 127.669 133.838 131.269 136.862 137.467C138.93 141.688 140.772 145.824 141.265 147.335C141.56 148.252 141.476 148.478 140.393 149.466C139.492 150.285 137.861 151.146 135.02 152.276C132.755 153.193 131.672 153.701 131.039 154.153C130.645 154.421 130.645 154.421 130.223 154.125C129.703 153.758 129.408 153.193 128.775 151.372C128.507 150.596 127.635 148.28 126.848 146.219C122.951 136.069 121.32 130.958 120.223 125.396C119.913 123.759 119.393 122.502 119.041 122.502C118.929 122.502 118.83 122.46 118.83 122.417C118.83 122.163 116.664 112.592 116.313 111.279C116.087 110.418 115.609 108.639 115.258 107.326C114.47 104.432 114.484 104.46 112.824 100.423C111.207 96.498 110.714 95.0298 109.955 91.7828C109.631 90.3852 109.027 87.8158 108.619 86.0511C108.197 84.2865 107.479 80.8842 107.001 78.4984C106.537 76.1125 105.974 73.1902 105.735 72.0326C105.51 70.8609 104.723 67.4727 103.991 64.4798C102.12 56.8282 100.742 50.2778 99.2651 42.2168C98.9979 40.7909 98.7447 39.6333 98.6884 39.6333C98.4915 39.6333 98.5759 44.8144 98.7869 46.9461C99.3073 51.9013 100.672 59.5105 101.867 63.9998C103.049 68.4327 103.203 69.195 103.429 71.962C103.654 74.6161 103.752 75.0678 104.329 75.7737C104.694 76.2396 104.723 76.3102 104.54 76.6349C104.301 77.0725 104.287 77.9196 104.54 78.4984C104.638 78.7525 104.976 79.2748 105.285 79.6701C105.792 80.3054 105.834 80.4042 105.665 80.6442C105.271 81.1807 105.426 81.9854 106.228 83.5383L106.987 85.0065L106.65 85.2747C106.199 85.6135 106.228 85.7264 106.804 86.3758C107.339 86.9688 107.437 87.5052 107.086 87.9711C106.776 88.3946 106.832 88.7052 107.297 89.0864C107.817 89.524 107.831 89.7922 107.367 90.0887C106.692 90.5263 106.959 90.9922 108.014 91.2181C108.745 91.3734 108.576 92.3475 107.817 92.4604C107.648 92.4887 107.493 92.6157 107.465 92.7569C107.423 92.9404 107.62 93.0957 108.197 93.3639C109.406 93.9145 109.519 94.4933 108.478 94.8321C108.197 94.931 107.929 95.1286 107.873 95.3121C107.676 95.8345 107.831 95.9898 108.619 95.9474C109.027 95.9333 109.434 95.9615 109.519 96.018C109.842 96.2156 109.688 96.7097 109.111 97.218C108.464 97.825 108.52 97.9521 109.547 98.2203C110.785 98.5309 110.982 99.0109 110.11 99.5897C109.35 100.084 109.266 100.183 109.266 100.536C109.266 100.945 109.491 101.044 110.391 101.044C111.629 101.044 111.952 101.891 110.954 102.526C110.644 102.724 110.391 102.978 110.391 103.091C110.391 103.204 110.757 103.486 111.221 103.712C111.671 103.952 112.079 104.234 112.135 104.361C112.29 104.799 112.219 104.997 111.91 104.997C110.996 105.011 110.503 105.547 110.897 106.112C111.08 106.366 111.249 106.408 112.023 106.408C112.895 106.408 112.923 106.422 112.923 106.761C112.923 107.015 112.768 107.213 112.36 107.467C111.868 107.778 111.812 107.862 111.938 108.102C112.135 108.469 112.627 108.78 113.176 108.893C113.795 109.02 113.809 109.542 113.204 109.797C112.684 110.022 112.501 110.319 112.599 110.827C112.67 111.194 112.712 111.208 113.485 111.208C114.273 111.208 114.315 111.236 114.526 111.646C114.793 112.182 114.751 112.267 114.006 112.634C112.698 113.298 112.684 113.749 113.964 113.749C114.751 113.749 115.131 113.947 115.201 114.371C115.229 114.596 115.131 114.681 114.653 114.78C114.118 114.879 114.048 114.935 114.048 115.288C114.048 115.754 114.203 115.909 114.92 116.135C115.384 116.291 115.595 116.516 115.595 116.869C115.595 116.94 115.342 116.996 115.019 116.996C114.484 116.996 114.456 117.01 114.498 117.392C114.526 117.702 114.695 117.858 115.384 118.196C115.862 118.436 116.242 118.733 116.27 118.874C116.341 119.241 116.045 119.537 115.581 119.537C115.272 119.537 115.173 119.608 115.173 119.806C115.173 120.159 115.469 120.385 116.073 120.483C116.355 120.526 116.58 120.582 116.58 120.61C116.58 120.639 116.481 120.879 116.355 121.147C116.017 121.839 116.172 122.29 116.861 122.587C117.607 122.926 117.635 123.392 116.931 123.73C116.439 123.97 116.172 124.45 116.369 124.747C116.411 124.832 116.749 124.902 117.114 124.902C118.029 124.902 118.38 125.029 118.493 125.368C118.563 125.594 118.479 125.763 118.141 126.06C117.789 126.384 117.564 126.455 117.002 126.455C116.341 126.455 116.298 126.483 116.298 126.822C116.298 127.274 116.974 127.584 118.029 127.584C118.465 127.584 118.887 127.669 119.055 127.782C119.294 127.98 119.308 128.008 119.098 128.22C118.985 128.347 118.661 128.558 118.394 128.686C117.86 128.954 117.705 129.406 118.057 129.702C118.183 129.801 118.605 129.956 118.999 130.041C119.674 130.196 119.702 130.224 119.477 130.45C119.337 130.577 119.069 130.733 118.858 130.775C118.141 130.93 117.846 131.1 117.846 131.396C117.846 131.693 118.366 132.003 119.126 132.158C119.477 132.229 119.505 132.285 119.477 132.977C119.463 133.697 119.463 133.697 120.096 134.078C120.94 134.572 120.926 134.897 120.04 135.349C119.224 135.758 119.126 135.928 119.519 136.323C119.759 136.563 119.998 136.619 120.659 136.619C121.461 136.619 121.503 136.634 121.503 136.972C121.503 137.241 121.376 137.382 120.982 137.565C120.42 137.834 120.237 138.314 120.504 138.737C120.631 138.921 120.715 138.921 121.109 138.751C121.967 138.398 122.136 138.455 122.178 139.118C122.22 139.598 122.164 139.739 121.925 139.866C121.77 139.951 121.503 139.979 121.362 139.937C121.165 139.866 121.081 139.909 121.081 140.078C121.081 140.431 121.7 140.968 122.304 141.123C122.6 141.208 122.966 141.363 123.12 141.476C123.373 141.659 123.373 141.688 123.148 142.026C123.022 142.224 122.614 142.563 122.248 142.775C121.868 142.986 121.559 143.184 121.531 143.198C121.503 143.212 121.559 143.368 121.643 143.537C121.798 143.819 121.897 143.833 122.881 143.791L123.964 143.749V144.313C123.964 144.85 123.95 144.878 123.303 145.062C122.431 145.302 122.389 145.669 123.191 146.078C123.795 146.389 124.245 146.445 124.386 146.219C124.527 145.993 124.878 146.332 124.78 146.586C124.738 146.685 124.499 146.911 124.231 147.08C123.289 147.659 123.753 148.619 124.977 148.619C125.765 148.619 125.779 148.902 124.991 149.706C124.245 150.469 124.386 150.68 125.694 150.807C127.016 150.934 127.227 150.991 127.326 151.245C127.565 151.88 126.932 152.29 125.75 152.29C125.132 152.29 125.132 152.29 125.329 152.614C125.455 152.784 125.891 153.052 126.355 153.207C126.805 153.363 127.199 153.56 127.227 153.645C127.298 153.843 125.75 154.266 123.162 154.76C120.293 155.297 118.127 156.059 117.578 156.723C117.466 156.85 117.339 156.948 117.283 156.948C117.114 156.948 116.355 155.283 115.961 154.054C115.426 152.445 114.962 150.017 114.47 146.29C113.739 140.784 113.246 138.187 112.641 136.394C112.304 135.42 112.29 134.742 112.585 134.502C113.092 134.064 113.092 133.838 112.585 132.554C111.376 129.518 110.743 126.384 109.758 118.761C108.802 111.364 108.436 109.302 107.156 104.503C105.806 99.392 105.384 97.2886 105.243 94.8321L105.145 93.3075L105.524 92.9404L105.918 92.5875L105.37 92.3051C105.06 92.1498 104.737 91.9381 104.638 91.8251C104.357 91.4722 101.797 76.4372 100.545 67.7268C99.8559 62.9269 99.3917 60.0611 97.6617 50.0096C96.1566 41.2427 95.7628 38.0239 95.805 35.0875L95.8331 33.0264L95.4112 32.4193C94.7501 31.4876 94.6376 31.5441 94.6376 32.7582C94.6376 40.7627 97.0568 59.5105 100.7 79.5854C102.725 90.7946 102.725 90.7663 103.625 93.6039C104.483 96.2721 104.596 96.865 104.694 99.4626C104.807 102.201 105.13 104.037 106.298 108.921C107.508 113.919 107.634 114.625 108.759 122.079C110.391 132.765 112.402 144.723 114.329 154.972C114.709 157.033 115.033 158.755 115.033 158.812C115.033 158.967 113.626 159.73 112.445 160.195C109.111 161.537 105.257 161.833 102.289 160.958L101.572 160.76L101.487 157.259C101.192 146.205 100.165 135.264 96.9443 109.091C96.2692 103.557 95.4252 96.2298 94.8345 90.6675C94.3985 86.6582 94.3141 85.3029 94.2156 80.856C94.1593 77.976 93.9765 74.0796 93.8077 72.0326C92.7528 58.8753 92.6403 57.0259 92.5981 52.7624C92.5559 48.3719 92.5137 47.4402 92.1761 44.5744C91.9229 42.485 91.6276 40.9886 91.1493 39.5062C90.6992 38.0663 90.6711 38.1369 90.4179 41.3415C90.1507 44.8426 90.2913 48.8519 90.7555 50.8566C91.2056 52.7624 91.2056 52.9177 90.7696 53.3271C90.3617 53.7083 90.3335 53.9765 90.6289 54.9506C90.7836 55.4447 90.8399 56.2353 90.8258 57.6753C90.8258 59.5529 90.8399 59.7646 91.1634 60.3999L91.501 61.0917H91.1212C90.2632 61.0917 90.1929 61.8681 91.0227 62.2634C91.4025 62.4611 91.5432 62.6163 91.5432 62.8563C91.5432 63.2657 91.2056 63.6328 90.8258 63.6328C90.4742 63.6328 90.4883 63.6893 90.9805 64.4092C91.5713 65.2704 91.5713 65.581 91.0087 65.9763L90.5445 66.301L91.2478 66.8092C91.6416 67.0915 91.9651 67.3598 91.9651 67.4021C91.9651 67.4304 91.7119 67.7268 91.3884 68.0374L90.8118 68.6021L91.2618 68.9833L91.6979 69.3503L91.4728 70.0844C91.2618 70.7762 91.2759 70.8326 91.5432 71.2844C91.6979 71.5385 91.8948 72.075 91.9792 72.4844C92.1339 73.1479 92.1199 73.2608 91.8948 73.5149C91.7541 73.6702 91.5572 73.7973 91.4447 73.7973C91.304 73.7973 91.3322 73.9526 91.5713 74.3902C91.8526 74.9267 91.8948 75.2796 91.9651 77.4678C92.0355 79.7125 92.0636 79.9948 92.359 80.4889C92.7528 81.1524 92.6825 81.4207 92.1058 81.4207C91.4728 81.4207 91.5291 81.943 92.2464 82.5924C92.9778 83.2418 93.006 83.6794 92.3308 83.6794C92.0636 83.6794 91.7963 83.75 91.7541 83.8347C91.6979 83.9053 91.9229 84.3712 92.2324 84.8371C93.006 85.9947 92.9778 86.4041 92.1058 86.5311C91.8385 86.5594 91.7541 86.6582 91.7541 86.9123C91.7541 87.1805 91.9089 87.3499 92.3871 87.6323C93.3717 88.2111 93.5545 89.1852 92.6684 89.1852C92.1058 89.1852 92.0073 89.4817 92.373 90.0746C92.7809 90.7381 92.7528 91.0063 92.2464 91.1757C92.0214 91.2604 91.8245 91.3875 91.8245 91.4581C91.8245 91.6699 92.3449 92.1216 92.9638 92.4322L93.5405 92.7428L93.1888 93.1098C92.4152 93.9286 92.4434 94.5216 93.2732 94.8321C93.8218 95.0298 93.7233 95.3968 93.0482 95.7356C92.359 96.0745 92.3871 96.4839 93.1185 96.8792C93.8358 97.2603 93.8218 97.6133 93.0904 97.9097C92.2886 98.2203 92.359 98.6438 93.231 98.8556C93.7233 98.9826 93.8921 99.0956 94.0046 99.4062C94.1593 99.8579 93.9624 100.056 93.3435 100.056C92.7809 100.056 92.8231 100.564 93.4561 101.312L93.9765 101.905L93.5827 102.314L93.2029 102.71L93.4983 103.006C93.6811 103.19 93.9765 103.303 94.2859 103.303C94.6798 103.303 94.7782 103.359 94.7782 103.571C94.7782 103.924 94.4125 104.291 94.075 104.291C93.9343 104.291 93.6952 104.404 93.5264 104.531C93.2732 104.757 93.2592 104.827 93.4139 105.124C93.4983 105.321 93.864 105.674 94.2156 105.914C94.9048 106.394 95.2283 107.001 94.947 107.284C94.8626 107.368 94.4407 107.439 93.9906 107.425C93.3295 107.411 93.217 107.439 93.2873 107.622C93.3295 107.75 93.3717 107.905 93.3717 107.975C93.3717 108.046 93.7233 108.328 94.1453 108.597C94.5672 108.865 94.9892 109.232 95.0736 109.387C95.3268 109.867 95.0314 110.319 94.3281 110.517C93.5827 110.728 93.3717 110.884 93.3717 111.222C93.3717 111.575 93.5686 111.66 94.5532 111.759C95.2705 111.829 95.4112 111.886 95.4534 112.126C95.5237 112.606 95.158 112.931 94.4547 113.001C93.3717 113.128 93.4139 113.58 94.5391 114.003C95.7628 114.469 95.7628 115.02 94.5391 115.316C93.7655 115.514 93.5264 115.881 93.9343 116.291C94.1312 116.488 94.3985 116.573 94.8908 116.573C95.9738 116.573 96.5364 117.194 95.9457 117.745C95.805 117.858 95.3268 118.098 94.8767 118.267L94.0609 118.578L94.3985 119.015C94.933 119.721 95.4252 120.017 96.0441 120.032C96.5505 120.032 96.6067 120.06 96.6067 120.399C96.6067 120.681 96.5083 120.808 96.1848 120.935C95.9597 121.02 95.58 121.161 95.3549 121.246C94.4547 121.585 94.7079 122.248 95.8753 122.587C96.3114 122.714 96.7755 122.897 96.8881 123.01C97.1975 123.307 96.9021 123.66 96.1848 123.872C95.4112 124.097 95.2002 124.281 95.2002 124.775C95.2002 125.269 95.3127 125.34 96.3395 125.424C97.296 125.523 97.5351 125.763 97.3803 126.469C97.2678 126.949 97.1834 126.963 96.3114 126.653C95.383 126.314 95.2002 126.427 95.2002 127.359C95.2002 128.389 95.4815 128.714 96.3958 128.813C97.6476 128.926 97.732 128.968 97.732 129.406C97.732 129.984 97.4225 130.154 96.2551 130.238C95.2846 130.295 95.2002 130.323 95.2002 130.605C95.2002 131.071 95.5659 131.481 96.3254 131.904C97.1834 132.37 97.2397 132.709 96.5364 133.005C95.9457 133.26 95.8472 133.471 96.0441 134.008C96.1848 134.389 96.227 134.389 96.9162 134.318C97.7461 134.22 98.154 134.389 98.154 134.841C98.154 135.264 97.7601 135.603 97.1553 135.716C96.5083 135.843 96.0441 136.154 96.0441 136.464C96.0441 136.859 96.3395 137.029 97.2538 137.128C98.3509 137.255 98.5759 137.382 98.5759 137.89C98.5759 138.384 98.2665 138.511 97.3803 138.37C96.9584 138.314 96.6771 138.342 96.5364 138.455C96.2551 138.695 96.2551 139.852 96.5505 140.276C96.7474 140.544 96.874 140.586 97.3663 140.544C99.0119 140.361 98.9697 141.25 97.31 141.801C96.663 142.012 96.5224 142.111 96.4942 142.422C96.438 142.93 96.8318 143.212 97.8304 143.382C98.8854 143.551 99.2792 143.749 99.2792 144.088C99.2792 144.511 98.9416 144.68 97.8867 144.793C96.8037 144.906 96.3817 145.16 96.5224 145.612C96.663 146.036 97.4085 146.389 98.379 146.473C99.2511 146.544 99.2792 146.544 99.2792 146.939C99.2792 147.462 98.9416 147.631 97.957 147.631C97.3382 147.631 97.1694 147.673 97.1694 147.857C97.1694 148.28 97.4647 148.619 98.154 148.972C98.5337 149.156 98.8854 149.382 98.9276 149.466C99.0963 149.749 98.5759 150.13 97.9008 150.229C96.8881 150.37 96.8318 150.44 97.1834 151.231C97.4647 151.852 97.4788 152.064 97.3944 153.758C97.2819 155.861 97.4085 156.327 98.2524 156.892C98.7025 157.203 98.7166 157.203 98.4634 157.513C98.2946 157.711 98.0414 157.838 97.7601 157.852C97.5069 157.852 97.31 157.937 97.31 158.021C97.31 158.29 97.957 158.784 98.6181 159.01C98.9838 159.137 99.2792 159.278 99.2792 159.348C99.2792 159.405 99.0119 159.574 98.6884 159.715C98.168 159.927 97.4929 159.984 94.2156 160.054C91.9511 160.111 90.1929 160.21 89.9819 160.308L89.6021 160.464L89.4896 156.694C89.4193 154.619 89.3911 144.949 89.4333 135.208C89.5459 106.422 89.5037 87.9993 89.3208 78.5972C89.2224 73.7408 89.0817 66.4986 89.0114 62.5034C88.8988 55.6847 88.8707 54.9224 88.3925 50.2778C87.9002 45.2944 87.7595 42.3721 87.9565 40.2686C88.069 38.9698 87.9002 38.1369 87.4079 37.5581L87.0844 37.191L86.9859 41.765C86.8593 47.652 87.1125 62.6728 87.4642 71.1009C87.858 80.3054 87.9424 87.9146 87.7455 97.5144C87.5064 108.653 87.5064 109.133 87.7173 112.691C87.9846 117.194 88.0268 151.894 87.7736 154.972C87.5626 157.556 87.0985 161.339 86.8593 162.525L86.6765 163.372L86.0576 163.485C84.8339 163.711 83.1601 163.499 81.2191 162.878C79.4187 162.313 79.3906 162.299 77.4917 162.341C75.7476 162.37 75.5225 162.341 74.9881 162.059C74.6505 161.89 74.3832 161.664 74.3832 161.565C74.3832 161.466 74.5942 160.337 74.8615 159.066C76.7181 150.172 77.5339 141.942 78.5326 122.361C79.2218 108.695 79.475 105.124 81.205 84.103C83.0335 61.9387 83.5399 53.7648 83.7509 42.1321L83.8493 37.0781L83.4836 37.2475C82.696 37.6145 82.6116 37.911 82.5975 40.6921C82.5975 42.8803 82.5412 43.5297 82.1896 45.4214C81.8098 47.4261 81.7817 47.8778 81.7676 50.8566C81.7676 54.1036 81.7676 54.1036 81.3879 54.7671L81.0222 55.4306L81.2894 55.953C81.5285 56.433 81.5285 56.4894 81.3175 56.6447C81.1347 56.7859 81.1206 56.9412 81.2191 57.647C81.3738 58.7482 81.3316 58.9741 80.9096 59.4117L80.558 59.7788L80.994 60.1317L81.4301 60.4705L81.0644 61.4164C80.6705 62.4611 80.6283 63.0257 80.8815 63.7175C81.0081 64.0987 80.98 64.3951 80.6424 65.6657C80.2345 67.1904 80.2345 67.4021 80.6565 68.5033C80.6986 68.6021 80.5439 68.9127 80.3048 69.1809C80.0657 69.4491 79.8688 69.7174 79.8688 69.7597C79.8688 69.8162 80.0235 70.0703 80.2064 70.3103C80.7971 71.1009 80.7971 71.3409 80.1923 71.6373C79.5312 71.9479 79.4328 72.3856 79.911 72.8655C80.2204 73.1761 80.2345 73.2326 80.0235 73.4302C79.8688 73.5855 79.7703 74.009 79.7281 74.6867L79.6578 75.7031L79.1655 75.8584C78.4622 76.0843 78.4763 76.3949 79.2218 76.8325C79.5593 77.0302 79.8829 77.2984 79.925 77.4113C79.9672 77.5243 79.8266 77.9901 79.6015 78.4278C78.9264 79.783 78.8279 80.2066 79.0811 80.7007C79.3906 81.2936 79.3624 81.5477 78.9545 81.7312C78.7576 81.8159 78.6029 81.9995 78.6029 82.1406C78.6029 82.2818 78.7576 82.5077 78.9545 82.6348C79.4046 82.9312 79.3906 83.1289 78.9405 83.6653C78.5748 84.103 78.5748 84.1171 78.7998 84.6818C79.0108 85.2041 79.0108 85.317 78.7998 86.1217C78.6591 86.6582 78.6029 87.237 78.6591 87.6323C78.842 89.0158 78.842 88.9593 78.3778 89.1146L77.9277 89.2558L78.2653 89.8911C78.617 90.5828 78.7154 91.4157 78.4341 91.4016C77.4636 91.3734 77.4073 91.571 78.1106 92.6016C78.7013 93.4486 78.7013 93.8157 78.1106 94.1263C77.8855 94.2392 77.6605 94.3521 77.6324 94.3663C77.5058 94.4369 78.0543 95.1004 78.3216 95.1851C78.7576 95.3262 78.5888 95.5945 78.0262 95.6792C77.3511 95.778 77.2948 96.3145 77.8855 96.9921C78.1247 97.2603 78.3216 97.585 78.3216 97.698C78.3216 98.0085 77.8715 98.2344 77.6042 98.065C77.2807 97.8532 77.1963 97.9097 77.1963 98.3897C77.1963 98.7285 77.337 98.9544 77.7871 99.3638C78.3497 99.9003 78.3638 99.9144 78.1106 100.197C77.9559 100.366 77.6746 100.479 77.3792 100.479C76.9854 100.479 76.915 100.521 76.915 100.818C76.915 101.03 77.0979 101.298 77.4073 101.566C78.0403 102.074 78.1247 102.611 77.5902 102.667C77.3933 102.695 77.0557 102.808 76.8447 102.921L76.4509 103.119L77.0979 103.655C77.773 104.22 78.1387 104.855 77.9699 105.152C77.8996 105.251 77.6464 105.279 77.2526 105.223C76.4087 105.11 76.2118 105.223 76.2118 105.773C76.2118 106.225 76.2539 106.253 76.7884 106.366C77.5761 106.521 77.7871 106.846 77.3792 107.284C76.8025 107.905 76.7462 108.314 77.1119 109.204C77.7308 110.714 77.759 110.629 76.7462 110.672C75.9445 110.714 75.8601 110.742 75.9023 110.996C75.9304 111.152 76.1274 111.547 76.3665 111.872C76.8869 112.606 76.8869 112.818 76.3524 113.044C76.1274 113.142 75.9304 113.269 75.9304 113.326C75.9304 113.396 76.2539 113.721 76.6478 114.06C77.1823 114.526 77.3229 114.738 77.2526 114.921C77.1401 115.218 76.6478 115.443 76.1274 115.443C75.5788 115.443 75.6913 115.952 76.3524 116.361C76.6618 116.559 76.915 116.785 76.915 116.855C76.915 116.926 76.7181 117.307 76.4931 117.674C75.9304 118.606 75.9445 118.987 76.5775 119.509C77.2948 120.102 77.1963 120.441 76.3102 120.497L75.621 120.54L75.8742 120.921C76.0711 121.217 76.1414 121.585 76.1414 122.587C76.1414 123.617 76.1977 123.942 76.3946 124.154C76.5212 124.309 76.6337 124.563 76.6337 124.733C76.6337 125.17 75.9726 125.89 75.5647 125.89C75.0021 125.89 75.2272 126.723 75.9867 127.429C76.4368 127.853 76.2961 128.163 75.5085 128.573C75.199 128.728 74.9459 128.926 74.9459 129.01C74.9459 129.208 75.9304 130.196 76.1977 130.281C76.4931 130.38 76.1414 130.86 75.4803 131.269C74.8193 131.693 74.8052 131.975 75.4522 132.285C75.9023 132.511 75.9445 132.568 75.9023 133.062C75.8601 133.556 75.8179 133.598 75.185 133.796C74.5942 133.98 74.5239 134.05 74.552 134.361C74.5802 134.601 74.7771 134.812 75.199 135.038C75.8038 135.377 76.1555 135.815 76.0008 136.055C75.9586 136.139 75.6632 136.196 75.3538 136.196C74.7067 136.196 74.2426 136.394 74.2426 136.676C74.2426 136.93 74.9177 137.509 75.4944 137.735C75.7335 137.848 75.9304 138.017 75.9304 138.116C75.9304 138.356 75.4241 138.681 74.8474 138.808C73.8628 139.005 73.905 139.641 74.9177 140.163C75.9726 140.699 75.8601 141.561 74.7208 141.561C74.0879 141.561 74.0175 141.885 74.5239 142.464C75.185 143.212 75.1006 143.466 74.0316 143.819C73.5252 143.989 73.1173 144.158 73.1173 144.186C73.1173 144.469 73.483 144.808 73.9191 144.949C74.6083 145.175 74.9459 145.485 74.9459 145.866C74.9459 146.276 74.6786 146.502 74.0457 146.6C73.6237 146.671 73.5393 146.742 73.5393 147.01C73.5393 147.264 73.68 147.405 74.0738 147.589C74.3973 147.744 74.6083 147.956 74.6364 148.139C74.6786 148.393 74.5802 148.45 74.116 148.535C73.5393 148.619 73.1173 149.029 73.1173 149.495C73.1173 149.636 73.3705 149.904 73.68 150.102C74.4817 150.61 74.4395 150.963 73.5674 151.076C73.1877 151.118 72.7657 151.245 72.625 151.358C72.3859 151.527 72.3719 151.584 72.5547 151.796C72.6672 151.937 73.0048 152.191 73.2861 152.374C73.8769 152.756 74.0175 153.278 73.5393 153.278C73.3705 153.278 73.047 153.377 72.822 153.504C72.4 153.716 72.4 153.73 72.6391 154.012C72.7798 154.167 73.1033 154.379 73.3565 154.478C74.1863 154.831 73.8909 155.339 72.7798 155.48C72.2734 155.551 72.1328 155.621 72.2031 155.791C72.4985 156.553 72.836 158.261 72.836 158.953C72.836 159.405 72.822 159.772 72.7938 159.772C72.7657 159.772 72.3156 159.546 71.767 159.278C69.4322 158.092 66.9566 157.527 63.595 157.414L61.1617 157.33V156.864C61.1617 156.61 61.0913 156.384 61.0069 156.356C60.8944 156.313 61.1054 154.972 61.6961 152.007C62.1603 149.636 62.9339 145.386 63.3981 142.549C63.8622 139.711 64.7202 134.488 65.311 130.93C66.9707 120.78 67.7302 117.18 68.9821 113.284C69.9245 110.389 70.0511 109.825 70.1636 108.455C70.262 107.157 70.3605 106.747 70.7403 105.928L71.1904 104.954L71.3029 101.481C71.4154 97.585 71.4295 97.4862 72.822 90.8087C74.7208 81.703 77.5058 65.9622 78.4622 58.9035C79.475 51.4354 80.136 42.9932 80.1501 37.6145V36.3722L79.7422 36.584C79.0249 36.9651 78.8561 37.5722 78.9545 39.5345C79.053 41.4403 79.0389 41.5956 76.8588 57.9153C76.2821 62.2634 75.6773 67.021 75.5085 68.5033C75.3397 69.9856 75.0303 71.9056 74.8052 72.8091C73.7644 76.9596 72.7938 82.3383 71.2185 92.7145C69.2493 105.575 68.6164 108.78 66.5628 116.22C65.0859 121.556 65.0015 121.853 64.6921 123.279C64.2983 125.057 63.5387 129.646 62.7089 135.278C61.3023 144.892 60.6694 148.422 59.6004 152.784C58.5877 156.934 58.3345 157.711 57.9547 157.767C57.7859 157.796 57.6453 157.866 57.6453 157.937C57.6453 158.148 56.7029 158.374 56.295 158.275C56.0699 158.219 55.5495 157.923 55.1275 157.626C54.1711 156.906 53.4256 156.652 50.7813 156.101C48.1511 155.565 47.2368 155.24 46.5195 154.563C45.8584 153.913 45.8443 153.687 46.3225 151.937C46.5195 151.231 46.8008 149.918 46.9555 149.015C47.3071 146.953 47.6869 145.655 48.9106 142.224C50.5563 137.636 50.6406 137.311 50.8938 134.714C51.1189 132.497 51.2314 132.045 52.3988 129.024C53.2287 126.822 53.5522 125.777 54.0023 123.66C55.2541 117.702 57.0123 111.053 59.741 101.961C60.2052 100.408 60.81 98.3191 61.0773 97.3168C61.4289 96.0039 61.668 95.3968 61.9212 95.1286C62.2728 94.7616 62.2869 94.6768 62.2588 93.4063C62.2306 92.0934 62.2306 92.051 63.0183 90.0322C66.1127 81.9854 66.394 81.0536 67.6177 74.5737C68.6867 68.9692 69.0946 67.388 70.1073 64.9739C70.7825 63.3504 71.0919 62.3622 71.4295 60.7387C71.6686 59.567 72.3719 56.5741 72.9907 54.0612C73.5956 51.5483 74.327 48.4002 74.6083 47.0732C75.6773 41.9062 76.479 38.7721 77.1541 37.0075C77.2807 36.6687 76.69 36.7816 76.2118 37.1769C75.5647 37.7275 75.1287 38.6733 73.4549 43.1203C73.0611 44.165 72.8923 45.1673 72.6954 47.539C72.4703 50.2778 72.2734 51.6895 72.0624 51.9154C71.964 52.0283 71.8233 52.3107 71.7811 52.5507C71.6405 53.1577 71.3169 53.6095 71.0356 53.6095C70.8387 53.6095 70.7965 53.7648 70.7825 54.64C70.7825 55.9388 70.248 57.4918 69.4462 58.5647C68.8414 59.3835 68.7992 59.5952 69.1087 60.6117C69.2212 60.9929 69.3196 61.5434 69.3196 61.8258V62.3622H68.6164C68.1522 62.3622 67.9131 62.4187 67.899 62.5316C67.8568 62.941 67.9694 63.1528 68.3632 63.4916C68.6445 63.7316 68.7711 63.9575 68.743 64.1269C68.6867 64.3669 68.546 64.4092 67.8287 64.4516L66.9848 64.494L67.041 65.8633C67.0692 66.6398 67.1817 67.4162 67.2942 67.6421C67.5474 68.1645 67.5474 68.1503 67.2098 68.1503C66.8301 68.1503 66.2252 68.4468 66.2252 68.6445C66.2252 68.7292 66.4503 69.0115 66.7175 69.2797C67.0973 69.6468 67.2098 69.8727 67.2098 70.2397C67.2098 70.7056 67.1958 70.7197 66.7597 70.6632C66.5065 70.6209 66.183 70.5503 66.0564 70.4797C65.8314 70.395 65.8033 70.4656 65.8033 70.9738C65.8033 71.6515 66.0002 72.1032 66.2956 72.1032C66.5487 72.1032 66.5628 72.2585 66.3378 72.5691C66.183 72.7667 66.0705 72.7808 65.6767 72.6679C65.4094 72.5973 65.1422 72.5691 65.0859 72.6114C64.8327 72.7667 64.9734 73.4726 65.3813 74.0796C65.8033 74.7149 65.9158 75.0678 65.6767 75.0678C65.6064 75.0678 65.2969 74.9831 64.9875 74.8702C64.1295 74.5596 63.9607 74.9408 64.678 75.5902C65.3391 76.1831 65.2406 76.4513 64.3686 76.5078L63.6231 76.5502L63.5809 77.2278C63.5528 77.7219 63.6653 78.2866 63.9748 79.176C64.2139 79.8677 64.3686 80.503 64.3264 80.5736C64.2139 80.7571 63.1449 81.0254 62.8354 80.9548C62.3291 80.8136 62.5401 81.3924 63.1308 81.7877C63.595 82.0983 63.6934 82.2395 63.6934 82.6348C63.6934 83.1853 63.4543 83.3547 62.4979 83.4959C61.7524 83.5947 61.7524 83.75 62.4416 84.2018C63.1308 84.6676 63.2715 84.7947 63.2715 85.0206C63.2715 85.1759 63.0886 85.2323 62.5682 85.2323C61.9775 85.2323 61.8649 85.2747 61.8649 85.5006C61.8649 85.6417 62.0618 85.9947 62.2869 86.2911C62.7229 86.8417 62.7792 87.0252 62.5963 87.3076C62.526 87.4346 62.3432 87.4346 61.8931 87.3076C61.246 87.1382 60.8522 87.2652 60.7678 87.6746C60.7397 87.8017 60.9788 88.1829 61.2882 88.5217C61.6117 88.8605 61.8649 89.2699 61.8649 89.4252C61.8649 89.7781 61.3304 90.0322 60.599 90.0322C60.2896 90.0322 60.0364 90.0887 60.0364 90.1734C60.0364 90.4981 60.374 90.9922 60.7397 91.2181L61.1476 91.4581L60.6272 91.9381C60.1067 92.404 60.1067 92.4181 60.1067 93.5898V94.7616L59.3753 94.8039C58.4892 94.8604 58.4189 95.058 59.0518 95.7639C59.6144 96.4133 59.5019 96.6109 58.6299 96.5545C57.9969 96.498 57.9266 96.5262 57.9266 96.7944C57.9266 96.9639 58.0813 97.345 58.2782 97.6556C58.4751 97.9662 58.6299 98.3474 58.6299 98.5026C58.6299 98.7426 58.5314 98.785 58.0672 98.785C57.5749 98.785 57.5046 98.8273 57.5046 99.1238C57.5046 99.3073 57.7015 99.6885 57.9266 99.985C58.4611 100.663 58.4892 101.27 57.9828 101.496C57.7156 101.623 57.5187 101.623 57.2233 101.51C56.4778 101.227 56.4356 101.834 57.153 102.512C57.4202 102.78 57.6453 103.105 57.6453 103.26C57.6453 103.571 57.1248 103.867 56.5763 103.867C56.2387 103.867 56.2247 103.91 56.309 104.333C56.3653 104.573 56.4216 104.884 56.4638 105.011C56.5763 105.406 56.1684 105.759 55.6198 105.745C55.1838 105.731 55.1135 105.773 55.1135 106.055C55.1135 106.267 55.2823 106.521 55.5917 106.761C56.1121 107.157 56.309 107.721 56.0137 107.975C55.859 108.102 55.648 108.088 55.1697 107.961C54.6212 107.806 54.5087 107.806 54.3117 108.004C54.1008 108.215 54.143 108.286 54.8181 108.921C55.4229 109.5 55.5495 109.698 55.5073 110.022C55.4651 110.432 55.4651 110.432 54.368 110.474L53.2568 110.517L53.8335 110.926C54.2977 111.265 54.4102 111.434 54.4102 111.787C54.4102 112.154 54.368 112.211 54.1711 112.126C53.5522 111.858 53.285 111.872 53.285 112.168C53.285 112.507 53.4819 112.676 54.1711 112.888C54.6071 113.044 54.6915 113.128 54.6915 113.453C54.6915 114.145 54.2836 114.356 53.2146 114.243C52.5395 114.173 52.3004 114.201 52.3004 114.314C52.3004 114.512 53.1865 115.415 53.6929 115.74C54.2414 116.093 53.946 116.291 52.8489 116.291C52.1597 116.291 51.8784 116.347 51.8784 116.46C51.8784 116.756 52.0472 116.926 52.6801 117.335C53.1302 117.603 53.285 117.801 53.285 118.055C53.285 118.38 53.2428 118.408 52.5817 118.408C51.9628 118.408 51.8784 118.436 51.8784 118.705C51.8784 118.874 52.0613 119.227 52.3004 119.495C52.7364 119.989 52.7927 120.187 52.5958 120.512C52.5114 120.639 52.3426 120.681 52.0753 120.61C51.2455 120.399 50.9642 120.441 50.922 120.752C50.8938 120.977 51.0204 121.147 51.3721 121.373C51.8503 121.669 52.3004 122.163 52.3004 122.389C52.3004 122.46 51.8925 122.502 51.3861 122.502C50.6828 122.502 50.4719 122.544 50.4719 122.7C50.4719 122.968 50.8094 123.293 51.3439 123.575C51.7096 123.759 51.7518 123.843 51.6674 124.239C51.5127 124.944 51.3299 125.086 50.6828 125.001C50.3734 124.959 50.0077 124.888 49.8811 124.832C49.6701 124.747 49.6279 124.803 49.6279 125.1C49.6279 125.495 49.8248 125.721 50.6125 126.229C50.9923 126.469 51.1048 126.624 51.1048 126.949C51.1048 127.415 50.9642 127.443 49.867 127.231L49.3326 127.119L49.3747 127.598C49.4029 127.98 49.5295 128.149 49.9374 128.417C50.5984 128.841 50.6828 129.335 50.0921 129.18C49.4029 128.996 48.8684 129.053 48.8121 129.293C48.7981 129.42 48.995 129.787 49.2763 130.111C49.5435 130.45 49.7686 130.831 49.7686 130.987C49.7686 131.227 49.6561 131.255 48.8543 131.255C48.0385 131.255 47.9401 131.283 47.9401 131.537C47.9401 131.721 48.1229 131.904 48.4746 132.06C48.8684 132.257 49.009 132.413 49.0372 132.709C49.0794 133.09 49.0653 133.09 48.3058 133.09C47.8697 133.09 47.5181 133.147 47.5181 133.217C47.5181 133.57 47.7431 133.838 48.2776 134.107C48.9106 134.431 49.0653 134.587 49.0653 134.954C49.0653 135.18 48.9247 135.208 47.9401 135.208C46.9273 135.208 46.8148 135.236 46.8148 135.476C46.8148 135.631 47.068 136.055 47.3774 136.408C47.9541 137.071 48.362 137.749 48.362 138.031C48.362 138.116 47.926 138.172 47.2368 138.172C46.2241 138.172 46.1115 138.201 46.1115 138.441C46.1115 138.709 46.7164 139.302 46.9977 139.302C47.2509 139.302 47.6588 139.754 47.6588 140.022C47.6588 140.163 47.504 140.389 47.3212 140.502C47.0399 140.685 46.8711 140.699 46.4351 140.586C45.6052 140.346 45.4083 140.389 45.4083 140.784C45.4083 140.996 45.5489 141.222 45.774 141.377C46.421 141.815 46.9555 142.379 46.9555 142.605C46.9555 142.789 46.7867 142.831 46.0694 142.831C44.8035 142.831 44.6909 143.015 45.4927 143.833C45.9287 144.285 46.1256 144.582 46.0694 144.723C45.9287 145.09 45.5349 145.16 45.0988 144.906C44.8597 144.779 44.5221 144.666 44.3252 144.666C43.7767 144.666 43.9455 145.231 44.5925 145.584C44.9722 145.782 45.127 145.965 45.127 146.177C45.127 146.473 45.0566 146.502 44.4237 146.502C44.0439 146.502 43.7204 146.53 43.7204 146.572C43.7204 146.615 43.9455 146.968 44.2127 147.363C44.4799 147.758 44.705 148.153 44.705 148.252C44.705 148.337 44.7472 148.549 44.7894 148.718C44.8738 149.015 44.8316 149.043 44.3956 149.043C44.1283 149.043 43.5094 148.845 43.0171 148.605C42.1029 148.139 40.3728 146.629 39.9649 145.923C39.7821 145.626 39.5148 145.457 38.9522 145.288C38.1083 145.048 37.4331 144.61 35.9141 143.382C34.9154 142.577 33.9167 141.984 33.537 141.984C33.1009 141.984 33.1713 141.631 34.0011 139.965C35.0139 137.904 35.9844 136.295 37.194 134.685C37.8832 133.768 38.0942 133.387 38.0942 133.02C38.0942 132.017 38.6287 130.309 39.2476 129.25C42.7921 123.377 45.4927 117.152 51.0345 102.103C51.6674 100.394 52.9333 97.1474 53.8476 94.9027C55.437 90.964 56.4638 88.3099 58.2079 83.4677C60.0223 78.4842 63.8622 68.3762 66.9707 60.4564C67.885 58.0988 68.4054 56.5459 68.6726 55.36C69.0805 53.4824 70.2902 49.2331 71.8374 44.2356C72.7376 41.3274 72.836 40.8756 72.836 39.8592L72.822 38.7157L72.4141 39.1674C71.9921 39.6333 71.767 40.2827 71.3591 42.245C71.1763 43.0638 70.8387 43.9109 70.0933 45.3508C68.8696 47.7225 68.8133 47.8778 68.546 49.9249C68.3351 51.5766 68.1522 52.0283 67.5615 52.4236C67.041 52.7624 66.4643 54.4565 65.1703 59.4682C64.889 60.5552 64.467 62.0799 64.2279 62.8563C63.4121 65.5245 60.3318 73.5008 59.2487 75.7314C57.8141 78.696 57.7437 78.8654 57.2233 80.7289C56.3934 83.6653 55.7464 85.5288 53.8054 90.5969C53.2287 92.1075 52.427 94.2957 52.0191 95.4674C49.9655 101.467 49.4029 102.935 47.3493 107.891C40.9636 123.279 36.547 132.511 32.6649 138.624C31.9054 139.81 31.9054 139.81 31.0614 139.994C29.894 140.234 29.7815 140.163 27.095 137.438C24.9429 135.264 24.521 134.77 24.085 133.852C23.6067 132.893 23.5645 132.695 23.5505 131.58C23.5364 130.366 23.5505 130.337 23.9162 130.154C24.1271 130.055 24.5772 129.646 24.9008 129.236C25.2383 128.841 25.8009 128.22 26.1526 127.867C26.6027 127.415 26.8418 127.034 26.9824 126.526C27.1372 125.989 27.3903 125.608 28.0655 124.902C28.7547 124.182 29.1485 123.575 29.9081 122.079C30.4285 121.034 31.7647 118.733 32.8618 116.968C34.9998 113.552 36.125 111.491 36.8283 109.811C37.0674 109.232 37.4894 108.498 37.7988 108.159C38.5584 107.34 39.0929 106.225 39.6414 104.291C40.1759 102.413 40.5979 101.51 41.3293 100.62C42.2154 99.5332 42.3279 99.2932 42.4545 98.0085C42.5952 96.6109 42.8905 95.9051 44.4237 93.2086C44.9582 92.2769 45.999 90.2158 46.7445 88.6205C50.7813 80.0513 54.143 72.6538 57.2374 65.5386C58.1094 63.5199 59.3894 60.7529 60.0786 59.3976C62.4275 54.7812 63.6231 52.0001 66.8301 43.7132C67.7162 41.4262 68.7711 38.8992 69.1649 38.0945C69.9104 36.5698 70.0511 35.8216 69.6994 35.3416C69.5166 35.1016 69.4744 35.1299 69.0524 35.6946C68.4195 36.584 67.3645 38.6733 66.3659 41.1156C65.4376 43.3462 64.5374 45.2379 64.1013 45.8591C63.9607 46.0567 63.806 46.5085 63.7497 46.8473C63.4262 49.1202 62.8073 50.7295 60.6412 55.0212C59.7973 56.6871 58.9534 58.5506 58.7705 59.1435C58.5736 59.7505 58.3485 60.2446 58.2642 60.2446C58.1798 60.2446 57.9969 60.3999 57.8703 60.5976C57.7437 60.7952 57.5046 60.9505 57.3499 60.9505C57.1248 60.9505 57.0826 61.007 57.153 61.1905C57.2092 61.3317 57.2796 61.6423 57.3218 61.8822C57.3921 62.2916 57.3499 62.3622 56.8857 62.574C56.2247 62.8987 55.9011 63.4493 55.4792 65.0304C55.0432 66.6539 54.7196 67.2892 54.157 67.6562C53.7351 67.9245 53.721 67.9809 53.7069 68.8986V69.8727L53.1865 69.8162C52.7364 69.7738 52.652 69.8162 52.6098 70.0703C52.5817 70.2397 52.6661 70.6209 52.7786 70.9032C52.9052 71.1997 53.0037 71.5526 53.0037 71.6938C53.0037 72.0326 52.4973 72.2444 51.7237 72.2444C51.0345 72.2444 50.9782 72.5691 51.5971 73.162C51.8221 73.3879 52.0191 73.6702 52.0191 73.7832C52.0191 73.9102 51.6956 74.1926 51.3017 74.4326C50.0499 75.1808 49.4732 76.2678 49.4591 77.9196C49.4591 78.8089 49.4451 78.8654 49.0653 79.0207C48.7559 79.1478 48.6011 79.1478 48.362 79.0207C48.1089 78.8795 48.0245 78.8936 47.926 79.0348C47.8557 79.1478 47.8275 79.2889 47.8557 79.3736C47.8838 79.4442 47.9823 79.7548 48.0948 80.0372C48.2214 80.4183 48.2354 80.6866 48.137 80.9548C48.0245 81.3077 47.926 81.3501 47.2649 81.3924C46.3929 81.4489 46.2944 81.703 46.9555 82.3383C47.4618 82.8183 47.49 83.1147 47.0539 83.1147C46.5054 83.1147 46.1537 83.6653 45.7177 85.2323C45.127 87.4064 44.7894 87.9146 44.0158 87.9146C43.636 87.9146 43.5094 88.4087 43.7767 88.8323C43.9033 89.0158 44.0017 89.3264 44.0017 89.524C44.0017 89.8064 43.9033 89.9052 43.4672 90.0181C43.1859 90.1028 42.8624 90.1734 42.7499 90.1734C42.5952 90.1734 42.5811 90.3146 42.6655 90.8369C42.8484 92.0793 42.8202 92.4604 42.553 92.6298C42.342 92.7569 42.2435 92.7145 41.9763 92.3898C41.6246 91.9522 41.3152 91.9098 41.0339 92.2345C40.8792 92.4181 40.8932 92.5451 41.1605 93.0392C41.695 94.0416 41.5825 94.2674 40.7385 93.9145C40.5275 93.8298 40.4853 93.8863 40.4853 94.3098C40.4853 94.7192 40.5838 94.8886 40.9917 95.2274C41.8356 95.9333 41.484 96.0886 39.7961 95.7356C39.3601 95.6509 39.332 95.6651 39.4304 95.9756C39.6695 96.738 39.7821 96.9215 40.1337 97.2038C40.3447 97.3733 40.4713 97.5709 40.415 97.6556C40.3728 97.7262 39.8524 97.7968 39.2757 97.7968C38.263 97.7968 38.2208 97.8109 38.263 98.1074C38.2911 98.3332 38.474 98.4885 38.8678 98.6438C39.6977 98.9544 39.7821 99.0391 39.7821 99.5332C39.7821 100.324 39.6133 100.437 38.8397 100.211C37.8832 99.9426 37.616 99.9426 37.5597 100.239C37.5316 100.394 37.7707 100.747 38.2208 101.185C38.9803 101.919 39.0788 102.173 38.7131 102.47C38.5443 102.611 38.3615 102.611 37.7707 102.47C36.5048 102.173 36.4767 102.187 36.5048 102.738C36.5189 103.063 36.6314 103.303 36.8564 103.472C37.7707 104.15 37.9536 104.333 37.9536 104.517C37.9536 104.785 37.2503 104.771 36.3501 104.503C35.9141 104.361 35.6046 104.333 35.5202 104.418C35.253 104.686 35.5624 105.208 36.1954 105.59C36.6173 105.844 36.8283 106.07 36.8283 106.267C36.8283 106.662 36.3923 106.634 35.9844 106.197C35.5905 105.773 34.9998 105.717 34.9998 106.112C34.9998 106.253 35.0983 106.606 35.2108 106.874C35.4921 107.552 35.4921 108.441 35.2248 108.342C34.7747 108.159 34.0011 108.074 33.6636 108.159C33.1291 108.3 33.1994 108.766 33.8042 109.006C34.2121 109.189 34.2965 109.288 34.2965 109.641C34.2965 110.149 34.1137 110.192 33.5229 109.797C32.9462 109.415 32.89 109.429 32.89 110.008C32.89 110.672 33.1994 111.251 33.6636 111.462C33.973 111.604 34.0152 111.674 33.8746 111.844C33.6214 112.14 33.3401 112.112 32.8056 111.702C32.5524 111.505 32.2148 111.349 32.0601 111.349C31.821 111.349 31.7647 111.434 31.7647 111.815C31.7647 112.069 31.8632 112.62 31.9898 113.029C32.1023 113.439 32.1726 113.82 32.1304 113.862C32.0882 113.905 31.8913 113.862 31.6944 113.778C31.2724 113.58 31.188 113.58 30.9489 113.721C30.7239 113.876 31.0896 114.851 31.5115 115.175C31.821 115.415 31.7507 115.726 31.399 115.726C31.2865 115.726 31.0052 115.627 30.7801 115.514C30.4004 115.316 30.3582 115.316 30.2316 115.556C30.1331 115.74 30.1753 115.98 30.4004 116.418C30.9208 117.434 30.2597 117.942 29.4439 117.138C29.1907 116.883 28.8954 116.714 28.7969 116.742C28.6984 116.77 28.614 117.194 28.5719 117.858C28.5156 118.733 28.5578 118.973 28.7547 119.17C28.9376 119.354 28.9516 119.453 28.825 119.58C28.6984 119.707 28.5437 119.679 28.178 119.481C27.9108 119.326 27.6435 119.241 27.6013 119.283C27.5591 119.34 27.5873 119.608 27.6717 119.89C27.8404 120.54 27.7561 120.766 27.2497 121.034C26.7855 121.274 26.7855 121.26 27.0106 121.895C27.2356 122.53 27.0106 122.784 26.5042 122.446C26.3073 122.319 26.0541 122.22 25.9275 122.22C25.59 122.22 25.6603 123.095 26.0541 123.674C26.2932 124.027 26.3495 124.21 26.237 124.323C25.9557 124.606 25.6322 124.493 24.957 123.9C24.1131 123.152 23.9724 123.42 24.5772 124.676C25.3649 126.314 24.9851 126.808 23.9302 125.523C23.663 125.184 23.3817 124.902 23.3113 124.902C23.1144 124.902 23.1707 125.636 23.3957 126.031C23.5786 126.37 23.6771 127.02 23.5364 127.02C23.5083 127.02 23.3254 126.949 23.1285 126.864C22.7487 126.681 22.594 126.384 22.2846 125.071C22.1017 124.366 21.9048 123.999 21.3422 123.335C20.9483 122.883 19.8794 121.472 18.9651 120.215L17.3194 117.914L17.6429 116.954C18.1774 115.373 18.7541 114.512 19.8653 113.622C21.2859 112.493 21.8626 111.872 22.0595 111.251C22.3549 110.291 22.8191 109.726 23.4379 109.542C24.1412 109.331 24.9148 108.469 25.9838 106.733C27.742 103.867 28.9235 102.23 31.1458 99.5614C34.1137 96.0039 34.7325 95.1568 36.6877 92.051C39.0788 88.2534 39.8946 87.0535 40.5557 86.3617C40.8932 86.0088 41.6809 84.8371 42.3279 83.75C43.5094 81.7312 44.9863 79.4442 46.0553 77.9901C46.3788 77.5525 47.0539 76.409 47.5322 75.449C48.5308 73.4726 50.9079 69.1668 53.7069 64.2681C57.2233 58.0988 59.2487 54.3012 60.9085 50.7154C61.9775 48.4425 63.6934 44.2497 63.6934 43.9673C63.6794 43.8685 63.3559 44.165 62.948 44.6026C62.2025 45.4214 62.104 45.5908 60.585 48.7249C59.8817 50.2072 59.5441 50.7295 58.8268 51.4636C58.0954 52.226 57.8844 52.5648 57.5749 53.4542C57.0264 55.0212 54.7478 59.6094 53.4678 61.727C52.8489 62.7293 51.3721 65.1434 50.1905 67.0915C48.995 69.0256 47.7291 71.3126 47.3634 72.1456C46.646 73.7832 46.1397 74.5737 45.7037 74.7149C45.5489 74.7573 45.4083 74.9831 45.352 75.2231C45.2395 75.8443 44.6347 76.9878 43.9877 77.8631C43.3125 78.7525 42.764 79.8113 42.6374 80.4607C42.5811 80.743 42.2576 81.2512 41.7794 81.7736C41.3433 82.2395 40.5275 83.3547 39.9509 84.2441C37.7988 87.5758 37.3347 88.2252 36.5048 89.0581C35.8297 89.7499 35.5202 90.2158 34.9998 91.3452C33.6214 94.3945 31.8491 96.9639 29.3595 99.5473C27.9811 101.001 27.1512 102.032 25.59 104.291C22.8613 108.258 21.2859 110.277 19.5277 112.041C17.3898 114.201 15.8285 115.147 14.0562 115.387L13.2967 115.486L13.367 114.851C13.4374 114.243 13.4233 114.201 12.7903 113.679C12.4246 113.368 11.8902 112.832 11.5948 112.479C10.99 111.759 9.99131 109.754 9.54121 108.357L9.23177 107.425L9.89285 106.38C11.2431 104.305 13.7187 101.665 17.2772 98.5732C19.6684 96.4839 22.2002 93.9851 22.2002 93.7028C22.2002 93.5757 22.2986 93.3498 22.4112 93.1945C22.5237 93.0534 22.6221 92.7287 22.6221 92.5028C22.6221 92.164 22.7909 91.8957 23.3395 91.3734C24.5491 90.1875 27.3622 86.9688 29.6408 84.1594C33.537 79.3736 35.7734 76.7196 37.3628 75.0255C38.3896 73.9102 39.2898 72.7667 40.0071 71.6373C41.8778 68.7009 44.6206 64.6069 48.1511 59.4682C54.1711 50.7154 57.0686 46.2402 59.6426 41.7368C61.3304 38.8004 63.7497 34.1417 63.6512 34.0287C63.4965 33.8734 62.8495 34.1417 62.3853 34.5511C61.8649 35.0028 61.6117 35.511 61.1476 37.0498C60.7397 38.4333 60.5006 38.7721 59.2347 39.8027C57.378 41.3133 57.2092 41.5109 57.2374 42.3721C57.2655 43.0497 57.1952 43.205 56.5622 44.165C56.1684 44.7438 55.5214 45.8591 55.1135 46.6496C54.2555 48.3719 53.3975 49.3884 52.5114 49.7554L51.8784 50.0096V50.9554V51.9013L51.2736 52.2683C50.922 52.466 50.4437 52.6213 50.1484 52.6213C49.5717 52.6213 49.5154 52.7624 49.8389 53.3271C49.9514 53.5248 50.0358 53.8495 50.0499 54.0471C50.0499 54.3718 49.9796 54.4424 49.5717 54.513C48.995 54.6259 48.7981 54.8377 48.1792 56.0941C47.6728 57.0965 47.1243 57.7035 46.7164 57.7035C46.5757 57.7035 46.5335 57.7882 46.6038 57.9435C46.6601 58.0847 46.7304 58.4094 46.7726 58.6494C46.843 59.087 46.8148 59.1294 46.21 59.3835C45.4505 59.7082 45.2254 60.0752 45.2957 60.8234L45.352 61.374H44.6206H43.8892L43.9595 61.9669C44.058 62.9128 43.6501 63.4352 42.5952 63.7316L41.7512 63.9575V64.8469C41.7512 65.821 41.5121 66.1457 41.0198 65.8775C40.7948 65.7645 40.7807 65.7927 40.8651 66.1739C40.9354 66.5692 40.8651 66.6821 40.0774 67.4162C39.2194 68.2209 39.2194 68.2209 39.2194 68.9974V69.7738L38.474 70.1268C37.7988 70.4515 37.7285 70.5221 37.63 71.115C37.4613 71.9479 37.3628 72.0609 36.6173 72.1738C35.9141 72.2726 35.7031 72.5267 35.7031 73.2608C35.7031 74.009 35.5202 74.1785 34.9717 73.9667C34.5638 73.8114 34.4794 73.8255 34.3246 74.0373C34.2262 74.1785 34.1699 74.3902 34.2121 74.5032C34.2403 74.6161 34.3387 74.9126 34.409 75.1525L34.5497 75.6043L33.2979 76.1266C32.6087 76.409 32.0179 76.7055 31.9616 76.776C31.9194 76.8466 32.032 77.1854 32.2008 77.5384C32.5946 78.3148 32.468 78.5125 31.7366 78.2866C30.8223 78.0043 30.4004 78.4419 30.9067 79.1478C31.0755 79.3736 31.2021 79.6842 31.2021 79.8254C31.2021 80.5171 30.33 80.6583 29.8518 80.0372C29.683 79.8254 29.5002 79.6983 29.458 79.7407C29.4017 79.783 29.3033 80.2207 29.2189 80.7007C29.0501 81.6607 28.8813 81.7454 28.1077 81.3501C27.7561 81.1665 27.6857 81.1665 27.6857 81.3218C27.6857 81.6607 28.1077 82.7477 28.2765 82.8465C28.4031 82.9312 28.4031 83.0018 28.2624 83.1712C28.1077 83.3547 28.0374 83.3547 27.6576 83.1147C27.1512 82.8042 26.8418 82.8889 26.8418 83.3265C26.8418 83.51 26.6167 83.9335 26.3354 84.2724C25.7728 84.9218 25.4352 85.6135 25.4352 86.0653C25.4352 86.4041 24.9851 86.5735 24.6054 86.3758C24.4507 86.2911 24.1693 86.2206 23.9724 86.2206C23.6911 86.2206 23.6067 86.2911 23.6067 86.5311C23.6208 86.7147 23.7052 87.0111 23.8177 87.2088C24.2537 87.9711 23.874 88.564 23.1988 88.2111C23.0441 88.1264 22.7487 88.0558 22.5518 88.0558C22.2424 88.0558 22.2002 88.1123 22.2564 88.3382C22.2986 88.4934 22.383 88.7476 22.4252 88.917C22.6643 89.764 22.0033 90.2299 21.5532 89.5381C21.2719 89.1146 21.1312 89.1005 20.9343 89.4817C20.8077 89.6934 20.8218 89.9193 20.9905 90.4134C21.1171 90.7805 21.2156 91.2181 21.2156 91.4016C21.2156 91.7122 21.1734 91.7263 20.2451 91.7263C19.6965 91.7263 19.2183 91.7969 19.1761 91.8675C19.1198 91.9522 19.2464 92.2063 19.4574 92.4604C20.1466 93.2792 19.5981 93.9427 18.8244 93.2086C18.5994 92.9969 18.3181 92.8557 18.1634 92.8839C17.9524 92.9263 17.9102 93.0675 17.9243 93.7451C17.9383 94.6204 17.7977 94.7616 17.3476 94.2674C17.0522 93.9286 16.6021 93.9004 16.4896 94.1969C16.4333 94.3098 16.5036 94.6627 16.6302 94.9733C16.7568 95.2839 16.8553 95.5804 16.8553 95.6227C16.8553 95.7074 16.4896 95.6509 15.6878 95.4533C15.3221 95.3686 15.3081 95.3827 15.3081 95.9333C15.3081 96.2439 15.4065 96.5968 15.5191 96.7097C15.7019 96.8933 15.7019 96.9497 15.505 97.105C15.3221 97.2462 15.2096 97.2462 14.8439 97.0909C14.5907 96.9921 14.211 96.9074 13.9718 96.8933C13.6061 96.8792 13.5499 96.9215 13.6061 97.2321C13.6202 97.4297 13.7609 97.7403 13.9015 97.9521C14.0422 98.1497 14.211 98.4885 14.2672 98.7003L14.3516 99.0815L13.8171 98.8415C13.5077 98.7144 13.0998 98.5732 12.8747 98.5309C12.509 98.4744 12.495 98.4885 12.495 99.1238C12.495 99.6603 12.4528 99.7732 12.2418 99.7732C12.1011 99.7732 11.8902 99.6179 11.7917 99.4203C11.5807 99.025 11.2713 99.0109 11.0322 99.3779C10.9196 99.5614 10.9478 99.7873 11.1306 100.296C11.5666 101.51 11.2994 102.074 10.6946 101.227C10.5117 100.973 10.357 100.888 10.1742 100.945C9.97724 101.03 9.94911 101.143 10.0194 101.58C10.2164 102.653 10.1882 102.935 9.92098 102.992C9.31616 103.119 8.78167 102.23 8.57069 100.747C8.4441 99.8579 8.20499 99.2509 6.95316 96.6674C6.13736 95.0015 5.23716 93.2086 4.94179 92.6863L4.4073 91.7404L5.11057 91.0205C6.0389 90.0464 7.09381 89.3264 9.52715 87.9287C15.4628 84.5265 25.2243 76.7055 34.6482 67.8115C40.2884 62.4752 43.4954 59.2282 43.9033 58.3953C44.4659 57.28 45.4927 55.953 46.7445 54.7389C47.3493 54.1601 48.1511 53.2142 48.5449 52.6213C48.9387 52.0425 50.0499 50.546 51.0345 49.3037C52.005 48.0614 53.1021 46.6355 53.4537 46.1273C54.0586 45.252 55.3948 42.9791 55.3948 42.8097C55.3948 42.7674 55.0572 42.9085 54.6634 43.1062C53.6085 43.6426 52.0331 45.2944 50.3734 47.6096C49.5998 48.6966 47.5884 51.2095 45.9006 53.186C44.2127 55.1624 42.0185 57.8165 41.0058 59.0729C39.5992 60.8517 39.0366 61.4305 38.5865 61.6564C38.2349 61.8258 37.5597 62.4187 36.983 63.054C36.4345 63.661 35.7453 64.2963 35.4358 64.4375C35.0279 64.6492 34.6763 65.0163 34.1559 65.7927C33.3541 67.0068 32.257 68.0656 30.9067 68.9409C30.4004 69.2656 29.894 69.6468 29.7815 69.788C29.669 69.915 28.0936 71.2703 26.2792 72.795C24.4647 74.3055 22.369 76.169 21.6235 76.9172C20.7092 77.849 19.8231 78.569 18.8807 79.1619C17.1366 80.263 15.941 81.1242 11.7214 84.3147C6.99535 87.9005 4.4073 89.6087 3.71809 89.6087C3.43678 89.6087 3.28206 89.4958 3.09921 89.157C2.97262 88.917 2.71944 88.5499 2.53659 88.3664L2.21308 88.0276L2.35373 84.3994C2.50845 80.8701 2.7335 78.7384 3.11327 77.4678C3.29612 76.8325 3.31019 76.8325 5.11057 75.9149C6.12329 75.4067 7.88148 74.5596 9.02079 74.0232C11.4823 72.8655 13.0295 71.9338 14.0703 70.9879C14.5345 70.5644 15.5191 69.9574 16.6443 69.3786C19.9638 67.6845 23.4098 65.4681 27.5451 62.3764C29.9081 60.6117 38.8397 53.4683 41.1183 51.506C43.1437 49.7837 46.2381 46.7061 47.6166 45.0685C48.7277 43.7556 51.1048 40.3533 50.9923 40.2403C50.8938 40.1415 49.7686 40.6074 49.3326 40.9321C49.0934 41.1156 48.5589 41.7791 48.137 42.4144C47.3353 43.6003 45.4786 45.3932 39.0085 51.1389C35.1264 54.5836 34.8451 54.8236 34.0152 55.1624C32.7915 55.6847 31.4834 56.6024 30.527 57.6188C29.8237 58.3388 29.5424 58.5506 29.2329 58.5506C29.0079 58.5506 28.7828 58.48 28.7266 58.3953C28.6703 58.2964 28.5719 58.367 28.4734 58.5647C28.389 58.7341 27.9811 59.087 27.5591 59.327C26.6589 59.8635 26.4198 60.1458 26.4198 60.7105C26.4198 61.1199 26.4058 61.1199 25.8853 61.0634C25.4071 60.9929 25.3368 61.0211 25.1821 61.374C25.0695 61.614 24.7038 61.9246 24.1975 62.1928C23.3113 62.6728 22.9878 62.9693 22.8472 63.4493C22.7065 63.8869 22.2002 63.8728 21.6657 63.421C21.1593 62.9975 20.9343 62.9693 21.0327 63.3646C21.1312 63.7175 20.8358 64.3104 20.5123 64.4092C20.0622 64.5504 19.5277 65.1575 19.5277 65.5386C19.5277 65.948 19.4574 65.9622 18.7682 65.6798C18.3884 65.5104 18.1774 65.4963 17.9805 65.6092C17.657 65.7927 17.6429 65.8492 17.9102 66.3151C18.1774 66.781 18.1774 67.2892 17.8961 67.4021C17.7695 67.4445 17.4601 67.3739 17.1929 67.2468C16.9256 67.1198 16.4755 67.021 16.2083 67.021H15.7019L15.8004 67.7268C15.8707 68.2068 15.8426 68.5033 15.73 68.6445C15.4487 68.9833 15.0549 68.8845 14.8158 68.4327C14.4079 67.6421 13.8031 68.0092 13.6624 69.1103C13.5921 69.7456 13.5358 69.8586 13.2264 69.9433C12.9451 70.0138 12.7903 69.9433 12.5512 69.6609C12.3684 69.4491 12.1293 69.2797 12.0167 69.2797C11.8058 69.2797 11.5526 69.9291 11.4823 70.6632L11.4401 71.0021L11.0603 70.7056C10.5961 70.3244 10.4133 70.3244 10.357 70.7197C10.3148 71.0162 10.1179 71.1715 9.18957 71.5667C8.852 71.722 8.75354 71.8632 8.69728 72.315C8.62695 72.8514 8.59882 72.8797 8.14873 72.8514C7.82522 72.8373 7.52984 72.682 7.16414 72.3291C6.88283 72.0467 6.60152 71.8209 6.54526 71.8209C6.489 71.8209 6.4468 72.202 6.4468 72.682V73.5432L6.0389 73.4444C5.47628 73.3173 5.09651 73.5573 4.75894 74.2208C4.35104 75.0255 4.01346 75.1667 3.64776 74.7008C3.2258 74.1643 3.26799 73.2044 3.77435 71.6515C4.01346 70.9315 4.23851 69.9291 4.29478 69.4209L4.37917 68.5033L6.15142 67.8821C9.72406 66.6539 12.8607 65.0163 17.0241 62.2069C19.7387 60.3858 20.7374 59.6094 22.4252 58C24.2819 56.2212 25.2383 55.6141 29.0219 53.8495C31.6663 52.593 32.9181 51.9295 33.7339 51.3225C34.4794 50.7578 35.478 49.699 35.9141 49.0213C36.3641 48.3014 36.8846 47.1296 36.7861 47.0308C36.758 47.0026 36.3923 47.2284 35.9703 47.5531C34.6341 48.5555 32.046 50.1507 27.5873 52.706C21.314 56.2918 18.3603 58.3247 16.1239 60.5693C15.4628 61.2328 15.0408 61.5293 14.4641 61.727C14.0281 61.8822 13.4092 62.2493 13.0576 62.574C12.706 62.8846 11.9183 63.5057 11.2994 63.9434C10.6805 64.381 9.99131 64.9316 9.76626 65.1716C9.51308 65.4398 9.20364 65.6092 8.99266 65.6092C8.31751 65.6092 6.65778 66.0327 5.9967 66.3574L5.32156 66.6963L4.98398 66.188C4.18225 64.9881 4.16819 63.774 4.91366 62.3622C5.15277 61.8964 6.01077 60.6964 6.8125 59.7082C7.71269 58.5788 8.45817 57.4776 8.79574 56.7718C9.24584 55.84 9.45682 55.5577 10.1601 55.0353C10.6243 54.6824 11.2853 53.9906 11.637 53.4965C14.6329 49.2755 16.0254 47.652 17.6289 46.5508C19.4293 45.3085 21.6798 44.2779 25.0977 43.1485L27.3341 42.4144L31.9054 42.3156C35.8015 42.2168 36.6173 42.1603 37.4613 41.9344C41.0761 40.918 45.127 38.8145 48.1089 36.4146C49.3326 35.4122 49.2341 35.6381 50.4015 31.0923C51.794 25.6712 52.4692 23.596 53.4959 21.5631C53.8195 20.9278 53.8476 20.7161 53.8476 18.9655C53.8476 17.5961 53.721 16.1985 53.3975 13.9115C53.088 11.6668 52.9474 10.1986 52.9474 8.7869C52.9333 6.95164 52.9615 6.73988 53.3412 5.70932C53.6366 4.90463 53.932 4.39641 54.4383 3.83171L55.1416 3.06937L55.6198 3.4223C56.3231 3.95877 57.4906 4.467 58.5877 4.69287C59.2065 4.83405 60.81 4.93286 63.1308 4.97522C66.9285 5.05992 68.0397 5.17285 69.3618 5.62462C70.1214 5.87872 70.248 5.89284 70.8528 5.69521C72.3015 5.24344 73.8487 5.00345 77.6183 4.69287C80.6283 4.43875 80.7408 4.41052 81.4863 3.987C81.7958 3.80348 82.5553 3.56348 83.1742 3.43643C86.4655 2.78703 89.2786 2.6882 95.9035 2.99879C101.572 3.2529 102.444 3.23878 106.031 2.71645C108.83 2.30704 110.982 2.32115 113.19 2.78703ZM119.126 33.817C119.688 34.184 120.799 35.3134 120.799 35.5252C120.799 35.5816 120.659 35.6805 120.49 35.751C119.688 36.104 120.11 36.824 121.939 38.1651C123.781 39.5204 124.372 40.2403 124.667 41.4968C124.963 42.7109 125.047 42.8944 125.525 43.3885L125.891 43.7415L126.271 43.3885C126.693 42.9791 126.918 42.9226 127.03 43.2191C127.073 43.3321 127.537 43.6426 128.071 43.925C129.351 44.6026 130.842 45.7461 133.388 48.0049C136.117 50.4472 136.806 50.9837 141.687 54.5977C143.937 56.2494 147.186 58.7482 148.902 60.1317C153.403 63.7457 154.979 64.7622 162.574 69.0256C167.131 71.5809 169.143 72.7808 170.69 73.8255C171.618 74.4467 171.773 74.5032 172.546 74.5032C173.334 74.5032 173.461 74.5455 174.206 75.1384C174.656 75.4772 175.43 76.0702 175.936 76.4372C177.723 77.7643 177.99 79.0489 177.272 82.9171C177.061 84.0747 176.865 85.1053 176.836 85.2182C176.794 85.3594 176.611 85.3876 176.063 85.317C174.938 85.1618 174.248 84.8512 170.718 82.8324C165.05 79.5995 162.447 77.8348 160.141 75.6467C159.184 74.7431 158.833 74.5032 158.509 74.5032C158.27 74.5032 157.792 74.3479 157.426 74.1502C157.06 73.9526 156.681 73.7973 156.582 73.7973C156.484 73.7973 156.371 73.6702 156.315 73.5291C156.273 73.3738 155.949 73.0208 155.612 72.7385C155.26 72.4561 154.979 72.1032 154.979 71.962C154.979 71.7785 154.669 71.5385 153.966 71.1573C152.602 70.4374 151.139 69.3362 149.338 67.6421C147.003 65.4398 145.92 64.5081 143.642 62.7434C139.999 59.9341 138.972 59.0447 135.357 55.6141C130.055 50.5742 127.368 47.8496 125.314 45.3508C122.515 41.9768 121.714 40.8474 120.856 39.1392C120.335 38.1227 119.829 37.3181 119.337 36.8098C118.169 35.5816 117.185 34.0146 117.339 33.6193C117.466 33.2664 118.422 33.3793 119.126 33.817ZM122.769 36.5275C123.064 36.6828 123.809 37.2334 124.414 37.7416C125.019 38.2639 125.765 38.8568 126.06 39.0545L126.623 39.4215L126.032 39.4639C125.23 39.5204 124.203 38.9557 123.275 37.9251C122.572 37.1345 121.967 36.2451 122.136 36.2451C122.178 36.2451 122.459 36.3722 122.769 36.5275Z" fill="white"/>
</g>
</svg>
